<?xml version="1.0" encoding="UTF-8" standalone="no"?>
<!DOCTYPE svg PUBLIC "-//W3C//DTD SVG 1.1//EN" "http://www.w3.org/Graphics/SVG/1.1/DTD/svg11.dtd">
<svg width="100%" height="100%" viewBox="0 0 367 369" version="1.1" xmlns="http://www.w3.org/2000/svg" xmlns:xlink="http://www.w3.org/1999/xlink" xml:space="preserve" xmlns:serif="http://www.serif.com/" style="fill-rule:evenodd;clip-rule:evenodd;stroke-linejoin:round;stroke-miterlimit:2;">
    <g transform="matrix(1,0,0,1,-786.7,-893)">
        <g>
            <path d="M970.8,1261.4L969.8,1261.4C966.3,1261.2 962.8,1260.3 959.8,1258.6C959.8,1258.6 959.4,1258.4 959.2,1258.3C958.7,1258 958.3,1257.8 957.9,1257.5C957.6,1257.3 957.4,1257.1 957.1,1256.9C956.7,1256.6 956.4,1256.4 956,1256.1C955.8,1255.9 955.5,1255.7 955.2,1255.4L954.2,1254.4L793.3,1089.7C793.1,1089.5 792.8,1089.2 792.6,1089C792.4,1088.8 792.2,1088.5 792,1088.3L791.9,1088.2C791.7,1087.9 791.5,1087.7 791.3,1087.4C791,1087.1 790.8,1086.7 790.6,1086.4C790.4,1086.1 790.2,1085.8 790.1,1085.6C789.9,1085.2 789.6,1084.8 789.4,1084.4C789.3,1084.2 789.2,1083.9 789,1083.7C788.8,1083.2 788.6,1082.8 788.4,1082.4C788.3,1082.1 788.2,1081.9 788.1,1081.6C787.9,1081.2 787.8,1080.8 787.7,1080.3L787.7,1080.2C787.6,1080 787.6,1079.7 787.5,1079.5L787.5,1079.4C787.4,1079 787.3,1078.5 787.2,1078.1C787.1,1077.8 787.1,1077.4 787,1077.1C786.9,1076.7 786.9,1076.3 786.8,1075.9C786.8,1075.6 786.7,1075.2 786.7,1074.9L786.7,1072.3C786.7,1071.9 786.7,1071.6 786.8,1071.2C786.8,1070.9 786.9,1070.6 786.9,1070.3L786.9,1070.2C787,1069.8 787,1069.4 787.1,1069C787.2,1068.7 787.2,1068.4 787.3,1068.1C787.4,1067.6 787.5,1067.2 787.7,1066.7C787.8,1066.5 787.9,1066.2 788,1065.9C788.2,1065.4 788.3,1065 788.5,1064.5C788.6,1064.3 788.7,1064 788.8,1063.8C789,1063.4 789.2,1062.9 789.4,1062.5C789.5,1062.2 789.7,1062 789.9,1061.7C790.1,1061.3 790.4,1060.9 790.6,1060.6C790.8,1060.3 791,1060.1 791.2,1059.8C791.4,1059.5 791.7,1059.1 792,1058.8C792.2,1058.5 792.4,1058.3 792.7,1058C792.7,1058 793.1,1057.5 793.3,1057.4C793.5,1057.2 793.7,1057 793.9,1056.8L954.7,899.8C954.9,899.6 955.2,899.3 955.4,899.1C955.7,898.8 956,898.6 956.3,898.3C956.6,898.1 956.9,897.8 957.2,897.6C957.5,897.4 957.8,897.1 958.2,896.9C958.5,896.7 958.8,896.5 959.2,896.3C959.5,896.1 959.9,895.9 960.2,895.8C960.6,895.6 960.9,895.5 961.2,895.3C961.2,895.3 961.3,895.3 961.3,895.2C961.7,895 962,894.9 962.3,894.7C962.6,894.6 962.9,894.4 963.3,894.3L963.4,894.3C963.8,894.2 964.1,894.1 964.4,894C964.8,893.9 965.1,893.8 965.5,893.7C965.9,893.6 966.3,893.5 966.7,893.4C967,893.3 967.4,893.3 967.8,893.2C968.2,893.1 968.5,893.1 968.9,893.1C969.3,893.1 969.7,893 970.1,893L972.5,893C972.9,893 973.2,893 973.5,893.1C973.8,893.1 974.2,893.2 974.6,893.3C975.4,893.4 976.2,893.6 977,893.8C977.3,893.9 977.6,894 977.9,894C978.3,894.1 978.7,894.3 979.1,894.4C979.4,894.5 979.7,894.6 980,894.7C980.4,894.9 980.8,895 981.1,895.2C981.4,895.4 981.8,895.5 982.1,895.7C982.4,895.9 982.8,896.1 983.1,896.3C983.4,896.5 983.8,896.7 984.1,896.9C984.7,897.3 985.4,897.8 985.9,898.3C986.1,898.5 986.3,898.6 986.5,898.8C986.8,899.1 987.1,899.3 987.4,899.6C987.5,899.7 987.7,899.8 987.7,899.9L1146,1060.8C1146.2,1061 1146.4,1061.3 1146.7,1061.5C1147,1061.8 1147.2,1062.1 1147.5,1062.4C1147.7,1062.6 1147.9,1063 1148.2,1063.3C1148.4,1063.6 1148.6,1063.9 1148.8,1064.2C1148.8,1064.2 1148.8,1064.3 1148.9,1064.3C1149.1,1064.6 1149.3,1064.9 1149.5,1065.3C1149.7,1065.6 1149.9,1066 1150.1,1066.3C1150.3,1066.6 1150.5,1067 1150.6,1067.4C1150.8,1067.7 1150.9,1068.1 1151,1068.4C1151.1,1068.7 1151.3,1069.1 1151.4,1069.5C1151.5,1069.8 1151.7,1070.2 1151.8,1070.6C1151.9,1070.9 1152,1071.3 1152.1,1071.6C1152.2,1072 1152.3,1072.4 1152.4,1072.8C1152.5,1073.3 1152.6,1073.7 1152.6,1074C1152.6,1074.3 1152.7,1074.7 1152.7,1075C1152.8,1075.6 1152.8,1076.2 1152.8,1076.8L1152.8,1077.8C1152.8,1078.4 1152.8,1079 1152.7,1079.6C1152.7,1080 1152.6,1080.3 1152.6,1080.7C1152.5,1081.1 1152.5,1081.5 1152.4,1081.8C1152.3,1082.2 1152.2,1082.6 1152.1,1083L1152.1,1083.1C1152,1083.4 1151.9,1083.8 1151.8,1084.1C1151.7,1084.5 1151.6,1084.8 1151.4,1085.2C1151.3,1085.5 1151.2,1085.9 1151,1086.2C1150.8,1086.6 1150.7,1087 1150.5,1087.3C1150.4,1087.6 1150.2,1088 1150,1088.3C1149.8,1088.6 1149.7,1088.9 1149.5,1089.2C1149.3,1089.6 1149.1,1089.9 1148.9,1090.2C1148.7,1090.5 1148.5,1090.8 1148.3,1091.1C1148.1,1091.4 1147.8,1091.8 1147.6,1092.1C1147.4,1092.4 1147.1,1092.7 1146.8,1093C1146.6,1093.2 1146.4,1093.4 1146.2,1093.7L987.8,1254.6C987.6,1254.8 987.3,1255.1 987.1,1255.3C986.8,1255.6 986.5,1255.9 986.2,1256.1C986,1256.3 985.7,1256.5 985.5,1256.7C985.1,1257 984.8,1257.2 984.4,1257.5C984.2,1257.7 983.9,1257.8 983.6,1258C983.2,1258.3 982.8,1258.5 982.4,1258.7C982.1,1258.9 981.9,1259 981.6,1259.1C981.1,1259.3 980.7,1259.5 980.3,1259.7C980,1259.8 979.8,1259.9 979.5,1260C979.1,1260.2 978.6,1260.3 978.1,1260.5C977.8,1260.6 977.5,1260.7 977.3,1260.7C976.8,1260.8 976.4,1260.9 976,1261C975.6,1261.1 975.3,1261.1 975,1261.2C974.6,1261.3 974.2,1261.3 973.8,1261.4C973.4,1261.4 973,1261.5 972.7,1261.5C972.3,1261.5 972,1261.5 971.7,1261.6L971.3,1261.6C970.9,1261.4 970.8,1261.4 970.8,1261.4Z" style="fill:rgb(94,152,203);fill-rule:nonzero;"/>
            <path d="M1136.6,1082C1136.7,1081.9 1136.8,1081.8 1136.9,1081.6C1137,1081.5 1137.1,1081.3 1137.1,1081.2C1137.2,1081.1 1137.2,1081 1137.3,1080.8C1137.4,1080.7 1137.4,1080.5 1137.5,1080.4C1137.6,1080.3 1137.6,1080.1 1137.7,1080C1137.8,1079.9 1137.8,1079.7 1137.8,1079.6C1137.9,1079.5 1137.9,1079.3 1137.9,1079.2C1137.9,1079.1 1138,1078.9 1138,1078.8C1138,1078.7 1138.1,1078.5 1138.1,1078.4C1138.1,1078.2 1138.1,1078.1 1138.2,1077.9C1138.2,1077.8 1138.2,1077.6 1138.3,1077.5L1138.3,1075.7C1138.3,1075.6 1138.3,1075.4 1138.2,1075.3C1138.2,1075.1 1138.2,1075 1138.1,1074.8C1138.1,1074.6 1138,1074.5 1138,1074.4C1138,1074.3 1137.9,1074.1 1137.9,1074C1137.9,1073.9 1137.8,1073.7 1137.8,1073.6C1137.8,1073.5 1137.7,1073.3 1137.7,1073.2C1137.6,1073.1 1137.6,1072.9 1137.5,1072.8C1137.4,1072.7 1137.4,1072.5 1137.3,1072.4C1137.2,1072.3 1137.2,1072.2 1137.1,1072C1137,1071.9 1136.9,1071.7 1136.9,1071.6C1136.8,1071.5 1136.7,1071.4 1136.6,1071.2C1136.5,1071.1 1136.4,1071 1136.3,1070.9C1136.2,1070.8 1136.1,1070.6 1135.9,1070.5C1135.8,1070.4 1135.8,1070.3 1135.7,1070.3L977.4,909.5C977.2,909.3 977.1,909.2 976.9,909C976.8,909 976.8,908.9 976.7,908.9C976.5,908.7 976.2,908.5 976,908.4C975.9,908.3 975.7,908.2 975.6,908.2C975.5,908.1 975.4,908 975.2,908C975.1,907.9 974.9,907.9 974.8,907.8C974.7,907.7 974.5,907.7 974.4,907.6C974.3,907.6 974.2,907.5 974.1,907.5C973.9,907.4 973.8,907.4 973.6,907.3C973.5,907.3 973.4,907.3 973.4,907.2C973.1,907.1 972.7,907 972.4,907C972.2,907 972.1,906.9 971.9,906.9L970.2,906.9C970.1,906.9 969.9,906.9 969.8,907C969.7,907 969.5,907 969.4,907.1C969.2,907.1 969.1,907.2 969,907.2C968.9,907.2 968.7,907.3 968.6,907.3C968.5,907.3 968.3,907.4 968.2,907.4C968.1,907.4 967.9,907.5 967.8,907.5C967.7,907.6 967.5,907.6 967.4,907.7C967.3,907.8 967.1,907.8 967,907.9C966.9,908 966.7,908 966.6,908.1C966.5,908.2 966.3,908.2 966.2,908.3C966.1,908.4 966,908.5 965.8,908.6C965.7,908.7 965.6,908.8 965.5,908.9C965.4,909 965.2,909.1 965.1,909.2C965,909.3 964.9,909.3 964.9,909.4L804,1066.5L803.3,1067.2C803.2,1067.3 803.1,1067.5 803,1067.6C802.9,1067.7 802.8,1067.8 802.8,1067.9C802.7,1068 802.6,1068.2 802.5,1068.4C802.4,1068.5 802.4,1068.6 802.3,1068.7C802.2,1068.9 802.1,1069 802,1069.2C802,1069.3 801.9,1069.4 801.9,1069.5C801.8,1069.7 801.8,1069.9 801.7,1070.1C801.7,1070.2 801.6,1070.3 801.6,1070.4C801.5,1070.6 801.5,1070.8 801.5,1071C801.5,1071.1 801.4,1071.2 801.4,1071.3C801.4,1071.5 801.3,1071.6 801.3,1071.8C801.3,1071.9 801.3,1072.1 801.2,1072.2L801.2,1073.9C801.2,1074.1 801.2,1074.2 801.3,1074.4C801.3,1074.5 801.3,1074.7 801.4,1074.8C801.4,1075 801.5,1075.1 801.5,1075.3C801.5,1075.4 801.6,1075.5 801.6,1075.6C801.7,1075.8 801.7,1076 801.8,1076.1C801.8,1076.2 801.9,1076.3 801.9,1076.4C802,1076.6 802,1076.7 802.1,1076.9C802.1,1077 802.2,1077.1 802.2,1077.2C802.3,1077.4 802.4,1077.5 802.5,1077.6C802.6,1077.7 802.6,1077.8 802.7,1077.9C802.8,1078 802.9,1078.2 803,1078.3C803.1,1078.4 803.2,1078.5 803.2,1078.6C803.3,1078.7 803.4,1078.8 803.5,1078.9C803.6,1079 803.6,1079.1 803.7,1079.1L964.6,1243.8L964.7,1243.9C964.8,1244 964.9,1244.1 965.1,1244.2C965.2,1244.3 965.3,1244.4 965.4,1244.5C965.5,1244.6 965.7,1244.7 965.8,1244.8C965.9,1244.9 966,1244.9 966.1,1245C966.3,1245.1 966.5,1245.2 966.7,1245.4C966.8,1245.4 966.8,1245.5 966.8,1245.5C968,1246.1 969.3,1246.5 970.7,1246.6L972,1246.6C972.2,1246.6 972.3,1246.6 972.5,1246.5C972.6,1246.5 972.8,1246.5 972.9,1246.4C973.1,1246.4 973.3,1246.3 973.5,1246.3C973.6,1246.3 973.7,1246.3 973.8,1246.2C974,1246.1 974.2,1246.1 974.4,1246C974.5,1246 974.6,1245.9 974.7,1245.9C974.9,1245.8 975.1,1245.7 975.3,1245.6C975.4,1245.6 975.5,1245.5 975.5,1245.5C975.7,1245.4 975.8,1245.3 976,1245.2C976.1,1245.1 976.2,1245.1 976.3,1245C976.5,1244.9 976.6,1244.8 976.7,1244.7C976.8,1244.6 976.9,1244.6 977,1244.5L977.6,1243.9L1135.9,1083C1136,1082.9 1136,1082.8 1136.1,1082.8C1136.2,1082.7 1136.3,1082.5 1136.5,1082.4C1136.4,1082.2 1136.5,1082.1 1136.6,1082ZM970.1,1135.4L910.7,1071.8L970.8,1011.7L1032.3,1076.4L970.1,1135.4ZM962,995L894.4,1062.6L832.5,1063.5L962,937.1L962,995ZM894.4,1080.6L960.8,1151.8L961.7,1215.2L831.2,1081.6L894.4,1080.6ZM978.8,1152L1048.7,1085.7L1107.9,1085.7L979.7,1215.9L978.8,1152ZM1049,1067.7L980,995.2L980,937.8L1107.8,1067.7L1049,1067.7Z" style="fill-rule:nonzero;"/>
        </g>
    </g>
</svg>
