<?xml version="1.0" encoding="UTF-8" standalone="no"?>
<!DOCTYPE svg PUBLIC "-//W3C//DTD SVG 1.1//EN" "http://www.w3.org/Graphics/SVG/1.1/DTD/svg11.dtd">
<svg width="100%" height="100%" viewBox="0 0 494 349" version="1.1" xmlns="http://www.w3.org/2000/svg" xmlns:xlink="http://www.w3.org/1999/xlink" xml:space="preserve" xmlns:serif="http://www.serif.com/" style="fill-rule:evenodd;clip-rule:evenodd;stroke-linejoin:round;stroke-miterlimit:2;">
    <g transform="matrix(1,0,0,1,-470.2,-659.2)">
        <g>
            <path d="M711.1,1007.3L710.7,1007.3C710.2,1007.3 709.7,1007.2 709.1,1007.2C708.9,1007.2 708.7,1007.2 708.5,1007.1C708,1007 707.5,1006.9 707,1006.8C706.8,1006.8 706.3,1006.7 706.3,1006.6C705.8,1006.5 705.4,1006.4 704.9,1006.2C704.7,1006.2 704.5,1006.1 704.3,1006C703.6,1005.8 703,1005.5 702.3,1005.3C702.1,1005.2 701.9,1005.1 701.8,1005C701.4,1004.8 700.9,1004.6 700.5,1004.3C700.3,1004.2 700.1,1004.1 699.9,1004C699.5,1003.7 699.1,1003.5 698.7,1003.3C698.5,1003.2 698.3,1003 698,1002.8C697.6,1002.5 697.2,1002.2 696.8,1001.9C696.7,1001.8 696.5,1001.7 696.4,1001.5C696,1001.1 695.5,1000.7 695.1,1000.3L694.8,1000L476.5,771.5C476.2,771.2 475.9,770.9 475.7,770.6C475.6,770.4 475.4,770.3 475.3,770.1C474.6,769.3 474.1,768.5 473.5,767.6C473.4,767.4 473.3,767.2 473.2,767.1C472.8,766.5 472.5,765.8 472.2,765.1C472.1,764.9 472,764.7 471.9,764.5C471.8,764.4 471.7,764 471.7,763.9C471.4,763.1 471.1,762.2 470.9,761.3C470.9,761.1 470.8,760.9 470.8,760.7C470.6,759.9 470.5,759.1 470.4,758.3C470.4,758.1 470.3,757.9 470.3,757.7C470.2,756.7 470.2,755.8 470.2,754.8L470.2,754.1C470.3,753.2 470.4,752.3 470.5,751.4L470.5,751.2C470.7,750.2 470.9,749.2 471.3,748.2C471.4,748 471.4,747.8 471.5,747.6C472.2,745.7 473.1,743.9 474.3,742.2C474.4,742 474.6,741.8 474.7,741.7C475.4,740.8 476,740 476.7,739.3L546.9,666.5C547.4,665.9 548,665.4 548.6,664.9C548.8,664.7 549.1,664.5 549.4,664.3C549.8,664 550.1,663.8 550.5,663.5C550.8,663.3 551.1,663.1 551.4,662.9C551.8,662.7 552.1,662.4 552.5,662.2C552.8,662 553.1,661.9 553.4,661.7C553.8,661.5 554.1,661.3 554.5,661.2C554.8,661.1 555.2,660.9 555.5,660.8C555.9,660.6 556.3,660.5 556.7,660.4C557.1,660.3 557.4,660.2 557.8,660.1C558.2,660 558.6,659.9 559,659.8C559.4,659.7 559.8,659.7 560.1,659.6C560.5,659.5 560.9,659.5 561.3,659.4C561.7,659.4 562,659.3 562.4,659.3C562.8,659.3 563.2,659.3 563.5,659.2L866.1,659.2C866.5,659.2 866.9,659.2 867.3,659.3C867.6,659.3 868,659.4 868.3,659.4C868.7,659.5 869.2,659.5 869.6,659.6C869.9,659.7 870.2,659.7 870.5,659.8C870.9,659.9 871.4,660 871.8,660.2C872.1,660.3 872.3,660.4 872.6,660.5C873.1,660.7 873.5,660.8 874,661C874.3,661.1 874.5,661.2 874.8,661.3C875.3,661.5 875.7,661.7 876.1,662C876.4,662.1 876.6,662.3 876.9,662.5C877.3,662.7 877.7,663 878,663.2C878.3,663.4 878.6,663.6 878.9,663.8C879.3,664.1 879.6,664.3 879.9,664.6C880.1,664.8 880.4,665 880.6,665.2C880.8,665.4 881.1,665.6 881.3,665.8C881.4,665.9 881.9,666.5 882,666.5L957.3,745.7C957.5,745.9 957.7,746.2 957.9,746.4C958.2,746.7 958.4,747 958.7,747.3C958.9,747.5 959.1,747.8 959.3,748.1C959.6,748.5 959.8,748.8 960,749.1C960.2,749.4 960.4,749.7 960.6,750L948.1,757.2L960.6,750.1C960.8,750.4 961,750.7 961.1,751C961.3,751.3 961.4,751.7 961.6,752C961.8,752.4 961.9,752.7 962.1,753.1C962.2,753.4 962.4,753.8 962.5,754.1L962.5,754.2C962.6,754.5 962.7,754.8 962.8,755.2C962.9,755.6 963,756 963.1,756.3C963.2,756.7 963.3,757.1 963.3,757.5C963.4,757.9 963.4,758.3 963.5,758.7C963.6,759.1 963.6,759.4 963.6,759.8C963.6,760.3 963.7,760.7 963.7,761.1L963.7,762.3C963.7,763 963.6,763.7 963.6,764.3C963.6,764.6 963.5,764.8 963.5,765.1C963.4,765.6 963.3,766.1 963.2,766.5C963.1,766.8 963.1,767.1 963,767.5C962.9,767.9 962.8,768.4 962.6,768.8C962.5,769.1 962.4,769.3 962.3,769.6C962.1,770.1 962,770.5 961.8,771C961.7,771.1 961.7,771.3 961.6,771.4C960.4,774 958.7,776.4 956.7,778.4L728.1,1000.6C728,1000.7 727.8,1000.8 727.7,1001C727.1,1001.6 726.4,1002.2 725.6,1002.7C725.4,1002.9 725.2,1003 725,1003.1C724.2,1003.7 723.3,1004.2 722.4,1004.7C722.2,1004.8 722,1004.9 721.8,1005C721,1005.4 720.3,1005.7 719.5,1005.9C719.3,1006 719.1,1006.1 718.8,1006.1C717.8,1006.4 716.8,1006.7 715.8,1006.8C715.5,1006.9 715.3,1006.9 715,1006.9C713.9,1007.1 712.8,1007.1 711.8,1007.1C711.7,1007.3 711.2,1007.3 711.1,1007.3Z" style="fill:rgb(209,211,212);fill-rule:nonzero;"/>
            <path d="M949.4,761.2L949.4,760.2C949.4,760 949.4,759.9 949.3,759.7C949.3,759.6 949.2,759.4 949.2,759.3C949.2,759.2 949.1,759 949.1,758.9C949.1,758.8 949,758.6 949,758.5C949,758.4 948.9,758.2 948.9,758.1C948.8,758 948.8,757.8 948.7,757.7C948.6,757.6 948.6,757.4 948.5,757.3C948.4,757.2 948.4,757 948.3,756.9C948.2,756.8 948.2,756.6 948.1,756.5C948,756.4 947.9,756.2 947.8,756.1C947.7,756 947.6,755.9 947.6,755.8C947.5,755.7 947.4,755.5 947.2,755.4C947.1,755.3 947.1,755.3 947,755.2L871.7,676L871,675.3C870.9,675.2 870.7,675.1 870.6,675C870.5,674.9 870.4,674.8 870.3,674.8C870.2,674.7 870,674.6 869.9,674.5C869.8,674.4 869.7,674.4 869.6,674.3C869.4,674.2 869.3,674.1 869.1,674.1C869,674.1 868.9,674 868.8,674C868.6,673.9 868.5,673.9 868.3,673.8C868.2,673.8 868.1,673.7 868,673.7C867.8,673.6 867.7,673.6 867.5,673.6C867.4,673.6 867.3,673.5 867.2,673.5C867,673.5 866.9,673.4 866.7,673.4L562.8,673.4C562.6,673.4 562.5,673.4 562.3,673.5C562.2,673.5 562,673.5 561.9,673.6C561.7,673.6 561.6,673.7 561.4,673.7C561.3,673.7 561.1,673.8 561,673.8C560.8,673.9 560.7,673.9 560.5,674C560.4,674 560.3,674.1 560.1,674.1C559.9,674.2 559.8,674.2 559.6,674.3C559.5,674.4 559.4,674.4 559.3,674.5C559.1,674.6 559,674.7 558.9,674.8C558.8,674.9 558.7,674.9 558.6,675C558.4,675.1 558.3,675.2 558.1,675.4C558,675.5 557.9,675.5 557.9,675.6C557.7,675.8 557.5,676 557.2,676.2L487,748.6C486.7,748.9 486.5,749.2 486.2,749.5C486.1,749.6 486.1,749.6 486,749.7C485.5,750.4 485.2,751.1 484.9,751.8C484.9,751.9 484.8,751.9 484.8,752C484.7,752.4 484.6,752.7 484.5,753.1C484.4,753.5 484.4,753.8 484.4,754.2L484.4,755.7C484.4,756.1 484.5,756.4 484.6,756.7C484.6,756.8 484.6,756.8 484.7,756.9C484.8,757.3 484.9,757.7 485.1,758L485.1,758.1C485.2,758.4 485.4,758.8 485.6,759.1C485.6,759.2 485.7,759.2 485.7,759.3C485.9,759.6 486.1,759.9 486.4,760.3C486.5,760.4 486.5,760.4 486.6,760.5C486.7,760.6 486.8,760.8 486.9,760.9L705.2,989.5L705.9,990.2C706.1,990.3 706.2,990.5 706.4,990.6C706.5,990.7 706.6,990.7 706.6,990.8C706.8,990.9 706.9,991 707.1,991.1C707.2,991.1 707.3,991.2 707.3,991.2C707.5,991.3 707.7,991.4 707.9,991.5C707.9,991.5 708,991.5 708,991.6C708.2,991.7 708.5,991.8 708.8,991.9C708.9,991.9 708.9,991.9 709,992C709.2,992.1 709.4,992.1 709.6,992.2C709.7,992.2 709.8,992.2 709.9,992.3C710.1,992.3 710.3,992.4 710.5,992.4L711.7,992.4C712.1,992.4 712.5,992.4 713,992.3L713.3,992.3C713.7,992.2 714.1,992.1 714.5,992C714.6,992 714.6,991.9 714.7,991.9C715,991.8 715.4,991.6 715.7,991.5C715.8,991.5 715.8,991.4 715.9,991.4C716.3,991.2 716.6,991 716.9,990.8C717,990.7 717,990.7 717.1,990.6C717.4,990.4 717.7,990.1 718,989.9L946.6,767.7C947.4,766.9 948.1,766 948.5,765C948.5,765 948.5,764.9 948.6,764.9C948.7,764.7 948.8,764.5 948.8,764.3C948.8,764.2 948.9,764.1 948.9,764C949,763.8 949,763.6 949,763.5C949,763.4 949.1,763.3 949.1,763.2C949.1,763 949.2,762.8 949.2,762.6L949.2,762.4C949.2,762.1 949.3,761.8 949.3,761.5C949.4,761.3 949.4,761.2 949.4,761.2ZM777.7,767.9L712.2,955.1L651.7,766.1L777.7,767.9ZM661.3,748.3L716.7,694.9L769,749.9L661.3,748.3ZM737.9,691.1L843.7,691.1L790.3,746.1L737.9,691.1ZM639.4,744.4L585.6,691.1L694.6,691.1L639.4,744.4ZM563.9,694.9L617.2,747.6L514.5,746.1L546.3,713.2L563.9,694.9ZM632.7,765.9L691.3,949L514.8,764.2L632.7,765.9ZM796.6,768.2L918.5,769.9L732.9,950.4L796.6,768.2ZM811.3,750.4L865,695.1L919.1,752L811.3,750.4Z" style="fill-rule:nonzero;"/>
        </g>
    </g>
</svg>
