<?xml version="1.0" encoding="UTF-8" standalone="no"?>
<!DOCTYPE svg PUBLIC "-//W3C//DTD SVG 1.1//EN" "http://www.w3.org/Graphics/SVG/1.1/DTD/svg11.dtd">
<svg width="100%" height="100%" viewBox="0 0 303 503" version="1.1" xmlns="http://www.w3.org/2000/svg" xmlns:xlink="http://www.w3.org/1999/xlink" xml:space="preserve" xmlns:serif="http://www.serif.com/" style="fill-rule:evenodd;clip-rule:evenodd;stroke-linejoin:round;stroke-miterlimit:2;">
    <g transform="matrix(1,0,0,1,-1286.8,-790.813)">
        <g transform="matrix(0.707107,0.707107,-0.707107,0.707107,1164.47,-466.989)">
            <path d="M1281,1098.3C1280.2,1098.3 1279.5,1098.3 1278.7,1098.2C1273.2,1097.6 1268,1095.1 1264.2,1091.2L1042,861.4C1041.3,860.7 1040.6,859.9 1040,859C1039.7,858.5 1039.4,858.1 1039.2,857.8C1039,857.5 1038.7,857 1038.3,856.4C1038,855.9 1037.8,855.4 1037.7,855.1C1037.6,854.8 1037.3,854.3 1037,853.6C1036.8,853 1036.6,852.5 1036.5,852.3C1036.4,852 1036.2,851.4 1036,850.7C1035.9,850.1 1035.8,849.6 1035.7,849.3C1035.6,849 1035.5,848.4 1035.5,847.8C1035.4,847.3 1035.4,846.8 1035.4,846.3C1035.4,845.9 1035.3,845.4 1035.4,844.7C1035.4,844.2 1035.4,843.7 1035.5,843.3C1035.5,843 1035.6,842.4 1035.7,841.7C1035.8,841.3 1035.9,840.8 1036,840.3C1036.1,840 1036.2,839.4 1036.4,838.8L1075.2,707.5L1075.8,705.7C1076,705.3 1076.2,704.8 1076.4,704.3C1076.6,703.9 1076.8,703.5 1077,703.2C1077.3,702.7 1077.6,702.2 1077.8,701.8C1078,701.5 1078.2,701.2 1078.4,700.8C1078.8,700.3 1079.1,699.9 1079.4,699.5C1079.7,699.2 1079.9,698.9 1080.2,698.6C1080.6,698.2 1081,697.8 1081.4,697.4C1081.7,697.1 1082,696.8 1082.3,696.6C1082.7,696.2 1083.2,695.9 1083.6,695.6C1083.9,695.4 1084.2,695.1 1084.5,694.9C1085.1,694.5 1085.6,694.2 1086,694C1086.4,693.8 1086.7,693.6 1087.1,693.4C1087.9,693 1088.8,692.6 1089.7,692.3L1222.5,644.6C1223.5,644.2 1224.5,643.9 1225.6,643.7C1226,643.6 1226.4,643.5 1226.9,643.5C1227.3,643.4 1228,643.3 1228.8,643.3L1230.2,643.3L1230.1,643.3L1232,643.3C1232.4,643.3 1232.9,643.4 1233.3,643.4C1233.9,643.5 1234.5,643.6 1235.1,643.7C1235.5,643.8 1236,643.9 1236.4,644L1236.5,644C1237.1,644.1 1237.6,644.3 1238.1,644.5C1238.5,644.7 1239,644.8 1239.5,645C1240,645.2 1240.5,645.4 1241,645.7C1241.4,645.9 1241.9,646.2 1242.3,646.4C1242.8,646.7 1243.3,647 1243.8,647.4C1244.1,647.6 1244.4,647.8 1244.7,648C1245,648.2 1245.3,648.4 1245.6,648.7C1245.9,648.9 1246.1,649.1 1246.3,649.3C1246.5,649.5 1246.7,649.7 1246.9,649.9L1478.5,878.1C1478.6,878.2 1478.7,878.3 1478.8,878.4C1479.4,879 1480,879.7 1480.5,880.4C1480.6,880.6 1480.8,880.7 1480.9,880.9C1481.3,881.5 1481.8,882.1 1482.2,882.8C1482.3,883 1482.4,883.2 1482.6,883.4C1483,884.1 1483.3,884.8 1483.6,885.5C1483.7,885.7 1483.7,885.8 1483.8,886C1484.1,886.8 1484.4,887.6 1484.6,888.3C1484.7,888.6 1484.8,888.9 1484.8,889.2C1484.9,889.6 1485,889.9 1485,890.3C1485.1,890.9 1485.2,891.4 1485.3,891.9C1485.4,892.3 1485.4,892.8 1485.4,893.2C1485.4,893.5 1485.5,894.1 1485.5,894.7L1485.5,895.6C1485.4,897.4 1485.2,899.2 1484.7,900.9C1484.7,901 1484.7,901.1 1484.6,901.1C1484.6,901.2 1484.5,901.4 1484.5,901.5L1440,1046C1439.9,1046.3 1439.8,1046.5 1439.7,1046.8C1439.5,1047.3 1439.3,1047.8 1439.1,1048.3C1439,1048.5 1438.9,1048.7 1438.8,1048.9C1438.4,1049.8 1438,1050.6 1437.5,1051.4C1437.4,1051.5 1437.4,1051.6 1437.3,1051.7C1436.9,1052.3 1436.4,1053 1435.9,1053.6C1435.7,1053.8 1435.6,1054 1435.4,1054.2C1435,1054.7 1434.6,1055.1 1434.1,1055.6C1433.9,1055.8 1433.8,1055.9 1433.6,1056.1C1433.4,1056.3 1433.2,1056.5 1433,1056.6L1432.9,1056.7C1432.6,1057 1432.3,1057.2 1432,1057.5C1431.8,1057.7 1431.6,1057.8 1431.4,1058C1430.6,1058.6 1429.9,1059.1 1429.1,1059.5C1429,1059.6 1428.7,1059.7 1428.7,1059.7C1428,1060.1 1427.3,1060.4 1426.6,1060.7C1426.4,1060.8 1426.2,1060.9 1426,1060.9C1425.4,1061.1 1424.9,1061.3 1424.3,1061.5C1424.1,1061.6 1423.8,1061.6 1423.6,1061.7C1423.6,1061.7 1286.5,1097.6 1286.4,1097.6C1285.8,1097.8 1285.2,1097.8 1284.9,1097.9C1284.5,1098 1284.1,1098 1283.7,1098.1C1282.9,1098.3 1281.9,1098.3 1281,1098.3Z" style="fill:rgb(141,198,63);fill-rule:nonzero;"/>
            <path d="M1470.9,894.2L1470.9,892.9C1470.9,892.7 1470.8,892.5 1470.8,892.3C1470.8,892.1 1470.7,891.9 1470.7,891.7L1470.7,891.6C1470.6,891.3 1470.5,891 1470.4,890.7L1470.4,890.6C1470.3,890.3 1470.1,890 1470,889.7C1470,889.6 1469.9,889.5 1469.9,889.5C1469.7,889.2 1469.6,889 1469.4,888.7L1469.3,888.6C1469.1,888.3 1468.8,888 1468.6,887.8L1237.1,659.7C1237,659.6 1236.9,659.6 1236.9,659.5C1236.8,659.4 1236.7,659.3 1236.6,659.2C1236.5,659.1 1236.4,659.1 1236.3,659C1236.2,658.9 1236,658.8 1235.8,658.7C1235.6,658.6 1235.4,658.5 1235.2,658.3C1235,658.2 1234.9,658.1 1234.7,658C1234.5,657.9 1234.3,657.8 1234.1,657.7C1233.9,657.6 1233.8,657.6 1233.6,657.5C1233.4,657.4 1233.2,657.4 1233,657.3C1232.8,657.3 1232.6,657.2 1232.5,657.2C1232.3,657.2 1232.1,657.1 1231.8,657.1C1231.6,657.1 1231.4,657.1 1231.3,657L1230.1,657C1229.8,657 1229.6,657.1 1229.3,657.1C1229.2,657.1 1229,657.1 1228.9,657.2C1228.5,657.3 1228.1,657.4 1227.7,657.5L1094.9,705.2C1094.5,705.3 1094.2,705.5 1093.9,705.6C1093.8,705.7 1093.7,705.7 1093.6,705.8C1093.4,705.9 1093.2,706 1093,706.2C1092.9,706.3 1092.8,706.4 1092.6,706.5C1092.4,706.6 1092.2,706.8 1092.1,706.9C1092,707 1091.9,707.1 1091.8,707.2C1091.6,707.3 1091.5,707.5 1091.4,707.7C1091.3,707.8 1091.2,707.9 1091.1,708.1C1091,708.3 1090.8,708.4 1090.7,708.6C1090.6,708.7 1090.5,708.9 1090.4,709C1090.3,709.2 1090.2,709.3 1090.1,709.5C1090,709.6 1089.9,709.8 1089.9,709.9C1089.8,710.1 1089.7,710.3 1089.7,710.5C1089.6,710.7 1089.6,710.8 1089.5,711C1089.5,711.1 1089.4,711.1 1089.4,711.2L1050.7,842.3L1050.7,842.5C1050.6,842.7 1050.6,842.9 1050.6,843.1C1050.6,843.3 1050.5,843.5 1050.5,843.6C1050.5,843.8 1050.5,844 1050.4,844.2L1050.4,845.9C1050.4,846.1 1050.5,846.3 1050.5,846.5C1050.5,846.7 1050.6,846.8 1050.6,847C1050.7,847.2 1050.7,847.4 1050.8,847.6C1050.9,847.8 1050.9,847.9 1051,848.1C1051.1,848.3 1051.2,848.5 1051.3,848.7C1051.4,848.9 1051.4,849 1051.5,849.2C1051.6,849.4 1051.7,849.6 1051.9,849.8C1052,849.9 1052.1,850.1 1052.2,850.2C1052.4,850.5 1052.7,850.8 1053,851.1L1275.2,1080.9C1276.7,1082.5 1278.7,1083.4 1280.8,1083.6L1281.7,1083.6C1282.1,1083.6 1282.4,1083.6 1282.8,1083.5C1282.9,1083.5 1283.1,1083.5 1283.2,1083.4C1283.4,1083.4 1283.6,1083.3 1283.8,1083.3L1284,1083.3L1420.6,1047.5L1420.7,1047.5C1421,1047.4 1421.3,1047.3 1421.5,1047.2C1421.6,1047.2 1421.7,1047.1 1421.7,1047.1C1422,1047 1422.3,1046.8 1422.6,1046.7C1422.9,1046.5 1423.2,1046.3 1423.5,1046.1C1423.6,1046 1423.7,1046 1423.7,1045.9C1423.8,1045.8 1424,1045.7 1424.1,1045.6L1425.1,1044.6C1425.2,1044.5 1425.2,1044.4 1425.3,1044.4C1425.5,1044.1 1425.7,1043.9 1425.9,1043.6C1426.1,1043.3 1426.3,1043 1426.4,1042.7C1426.4,1042.6 1426.5,1042.6 1426.5,1042.5C1426.6,1042.2 1426.7,1042 1426.8,1041.7C1426.8,1041.6 1426.8,1041.6 1426.9,1041.5L1471.2,896.8L1471.2,896.7C1471.4,896 1471.5,895.2 1471.6,894.4C1470.9,894.3 1470.9,894.2 1470.9,894.2ZM1413.8,1020.7L1377.8,979.8L1394.8,922.4L1448.5,907.2L1413.8,1020.7ZM1076.1,849.5L1126.7,836.5L1293.5,1002.2L1276.9,1057.2L1076.1,849.5ZM1102.1,730.3L1138,764.6L1122.2,819.1L1072,832L1102.1,730.3ZM1131.4,711L1218.8,679.6L1208.4,737.4L1150.8,751.8L1114.4,717L1131.4,711ZM1444.6,889.6L1390.2,905L1225.9,741.8L1236.2,684.4L1444.6,889.6ZM1377.5,917.6L1360.6,974.6L1306.3,989.5L1139.6,823.9L1155.4,769.3L1213.6,754.8L1377.5,917.6ZM1310.8,1007L1364.7,992.2L1401.3,1033.8L1294.3,1061.8L1310.8,1007Z" style="fill-rule:nonzero;"/>
        </g>
    </g>
</svg>
