<?xml version="1.0" encoding="UTF-8" standalone="no"?>
<!DOCTYPE svg PUBLIC "-//W3C//DTD SVG 1.1//EN" "http://www.w3.org/Graphics/SVG/1.1/DTD/svg11.dtd">
<svg width="100%" height="100%" viewBox="0 0 349 479" version="1.1" xmlns="http://www.w3.org/2000/svg" xmlns:xlink="http://www.w3.org/1999/xlink" xml:space="preserve" xmlns:serif="http://www.serif.com/" style="fill-rule:evenodd;clip-rule:evenodd;stroke-linejoin:round;stroke-miterlimit:2;">
    <g transform="matrix(1,0,0,1,-1296.6,-212.3)">
        <g>
            <path d="M1402.7,691.1C1401.8,691.1 1400.9,691 1400,690.9C1399.7,690.9 1399.4,690.8 1399.1,690.8C1398.5,690.7 1397.9,690.6 1397.3,690.4C1397,690.3 1396.7,690.3 1396.4,690.2C1395.9,690.1 1395.3,689.9 1394.7,689.6C1394.5,689.5 1394.2,689.4 1394,689.3L1393.9,689.3C1393.1,689 1392.3,688.6 1391.5,688.2C1391.3,688.1 1391,687.9 1390.8,687.8C1390.2,687.5 1389.7,687.1 1389.2,686.8C1389,686.6 1388.8,686.5 1388.5,686.3C1388,685.9 1387.5,685.5 1387,685.1C1386.9,685 1386.7,684.9 1386.6,684.7C1386.4,684.5 1386.2,684.3 1386,684.1L1303.3,599.3C1303.2,599.2 1303.1,599.1 1303.1,599C1302.6,598.4 1302.1,597.8 1301.6,597.2C1301.4,597 1301.3,596.8 1301.1,596.6C1300.7,596.1 1300.3,595.5 1300,594.9C1299.9,594.7 1299.7,594.4 1299.6,594.1C1299.3,593.5 1298.9,592.8 1298.6,592.1C1298.5,592 1298.4,591.7 1298.4,591.7C1298.1,590.9 1297.8,590.1 1297.5,589.2C1297.4,589 1297.4,588.7 1297.3,588.4C1297.1,587.8 1297,587.1 1296.9,586.5C1296.9,586.2 1296.8,585.9 1296.8,585.7C1296.7,584.8 1296.6,583.9 1296.6,583L1296.6,316.3C1296.6,315.4 1296.7,314.5 1296.8,313.6C1296.8,313.3 1296.9,313 1296.9,312.7C1297,312.1 1297.1,311.5 1297.3,310.9C1297.4,310.6 1297.4,310.3 1297.5,310.1C1297.7,309.5 1297.9,308.9 1298.1,308.3C1298.2,308 1298.3,307.8 1298.4,307.5C1298.8,306.6 1299.1,305.8 1299.6,305.1C1299.7,304.9 1299.9,304.6 1300,304.4C1300.3,303.8 1300.7,303.3 1301,302.8C1301.2,302.6 1301.3,302.3 1301.5,302.1C1301.9,301.6 1302.3,301.1 1302.7,300.7C1302.8,300.6 1302.9,300.4 1303.1,300.3C1303.3,300.1 1303.5,299.9 1303.7,299.6C1303.7,299.6 1386.4,219 1386.4,218.9C1386.5,218.8 1386.5,218.8 1386.6,218.7C1386.7,218.6 1386.8,218.5 1386.9,218.5C1387.4,218 1387.9,217.6 1388.4,217.2C1388.6,217.1 1388.8,216.9 1389,216.7C1389.5,216.3 1390.1,216 1390.6,215.6C1390.8,215.5 1391.1,215.3 1391.3,215.2C1392.1,214.8 1392.9,214.4 1393.7,214.1C1393.8,214 1394,214 1394.1,213.9C1394.8,213.6 1395.5,213.4 1396.2,213.2L1396.3,213.2C1396.5,213.1 1396.8,213.1 1397,213C1397.7,212.8 1398.3,212.7 1399,212.6C1399.3,212.6 1399.5,212.5 1399.7,212.5C1400.7,212.4 1401.6,212.3 1402.5,212.3L1544.6,212.3C1551,212.3 1557.1,214.9 1561.5,219.5L1638.5,300.1C1639,300.7 1639.6,301.3 1640.1,302C1640.3,302.2 1640.4,302.4 1640.6,302.6C1641,303.1 1641.4,303.7 1641.7,304.3C1641.8,304.4 1641.9,304.7 1642.1,304.9C1642.4,305.5 1642.8,306.1 1643,306.8C1643.1,307 1643.2,307.1 1643.2,307.3C1643.2,307.3 1643.2,307.4 1643.3,307.4C1643.6,308.2 1643.9,309 1644.2,309.9C1644.3,310.2 1644.3,310.5 1644.4,310.7C1644.5,311.3 1644.7,312 1644.8,312.6L1644.8,312.7C1644.8,312.9 1644.9,313.2 1644.9,313.4C1645,314.3 1645.1,315.2 1645.1,316.1L1645.1,574.5C1645.1,575.3 1645.1,576.1 1645,577C1645,577.2 1645,577.4 1644.9,577.7C1644.8,578.4 1644.7,579 1644.6,579.6C1644.5,579.9 1644.5,580.1 1644.4,580.3C1644.2,581 1644,581.8 1643.7,582.6C1643.6,582.9 1643.5,583.1 1643.4,583.3C1643.2,583.9 1642.9,584.4 1642.6,585C1642.5,585.2 1642.4,585.4 1642.3,585.6C1642,586.2 1641.7,586.7 1641.3,587.3C1641.2,587.5 1641.1,587.7 1640.9,587.9C1640.5,588.4 1640.1,589 1639.7,589.5L1562.7,682.5C1562.1,683.2 1561.5,683.9 1560.8,684.5C1560.5,684.7 1560.3,685 1560,685.2C1559.7,685.5 1559.2,685.9 1558.6,686.3C1558.3,686.5 1558,686.7 1557.7,686.9C1557.3,687.2 1556.8,687.5 1556.3,687.8C1556,688 1555.6,688.2 1555.3,688.3C1554.8,688.5 1554.3,688.8 1553.8,689C1553.5,689.1 1553.2,689.3 1552.8,689.4C1552.2,689.6 1551.7,689.8 1551.2,689.9C1550.8,690 1550.5,690.1 1550.2,690.2C1549.6,690.3 1549.1,690.4 1548.5,690.5C1548.2,690.6 1547.8,690.6 1547.5,690.7C1546.5,690.8 1545.6,690.9 1544.7,690.9L1402.7,690.9L1402.7,691.1Z" style="fill:rgb(246,169,203);fill-rule:nonzero;"/>
            <path d="M1630.8,314.5C1630.8,314.2 1630.7,314 1630.6,313.7C1630.6,313.6 1630.6,313.5 1630.5,313.4C1630.4,313.1 1630.3,312.7 1630.2,312.4C1630.2,312.4 1630.2,312.3 1630.1,312.3C1630,312 1629.9,311.8 1629.7,311.5C1629.7,311.4 1629.6,311.3 1629.5,311.2C1629.4,311 1629.2,310.7 1629,310.5C1629,310.4 1628.9,310.4 1628.9,310.3C1628.7,310 1628.5,309.8 1628.3,309.6L1551.3,229C1549.6,227.2 1547.3,226.2 1544.8,226.2L1402.7,226.2C1402.3,226.2 1402,226.2 1401.7,226.3L1401.4,226.3C1401.1,226.3 1400.9,226.4 1400.7,226.4C1400.6,226.4 1400.5,226.4 1400.4,226.5C1400.1,226.6 1399.8,226.7 1399.5,226.8C1399.2,226.9 1398.9,227.1 1398.6,227.2C1398.5,227.2 1398.4,227.3 1398.3,227.4C1398.1,227.5 1397.9,227.7 1397.7,227.8C1397.6,227.9 1397.5,227.9 1397.4,228C1397.2,228.2 1396.9,228.4 1396.7,228.6L1396.6,228.7L1313.9,309.3L1313.8,309.4C1313.7,309.5 1313.6,309.6 1313.6,309.7C1313.4,309.9 1313.3,310.1 1313.1,310.2C1313,310.3 1313,310.4 1312.9,310.5C1312.7,310.7 1312.6,310.9 1312.5,311.2C1312.5,311.3 1312.4,311.3 1312.4,311.4C1312.2,311.7 1312.1,312 1312,312.3C1312,312.4 1311.9,312.5 1311.9,312.5C1311.8,312.7 1311.7,313 1311.7,313.2C1311.7,313.3 1311.6,313.4 1311.6,313.5C1311.5,313.7 1311.5,314 1311.5,314.2L1311.5,314.5C1311.5,314.8 1311.4,315.2 1311.4,315.6L1311.4,582.2C1311.4,582.6 1311.4,582.9 1311.5,583.3L1311.5,583.6C1311.5,583.9 1311.6,584.1 1311.7,584.4C1311.7,584.5 1311.7,584.6 1311.8,584.7C1311.9,585 1312,585.4 1312.1,585.7L1312.1,585.8C1312.2,586.1 1312.4,586.4 1312.5,586.7C1312.6,586.8 1312.6,586.9 1312.7,587C1312.8,587.2 1313,587.4 1313.1,587.6C1313.2,587.7 1313.2,587.8 1313.3,587.8C1313.5,588.1 1313.7,588.3 1314,588.6L1396.7,673.3C1396.7,673.4 1396.8,673.4 1396.9,673.4C1397,673.5 1397.1,673.6 1397.2,673.6C1397.4,673.8 1397.6,673.9 1397.7,674.1C1397.8,674.2 1397.9,674.2 1398,674.3C1398.2,674.5 1398.5,674.6 1398.7,674.8C1398.8,674.8 1398.8,674.9 1398.9,674.9C1399.2,675.1 1399.5,675.2 1399.8,675.3C1399.9,675.3 1400,675.4 1400.1,675.4C1400.3,675.5 1400.6,675.6 1400.8,675.6C1400.9,675.6 1401,675.7 1401.1,675.7C1401.3,675.8 1401.6,675.8 1401.8,675.8L1402.1,675.8C1402.4,675.8 1402.8,675.9 1403.1,675.9L1545.2,675.9C1545.6,675.9 1545.9,675.9 1546.3,675.8C1546.4,675.8 1546.5,675.8 1546.7,675.7C1546.9,675.7 1547.2,675.6 1547.4,675.6C1547.5,675.6 1547.7,675.5 1547.8,675.5C1548,675.4 1548.2,675.4 1548.4,675.3C1548.5,675.2 1548.7,675.2 1548.8,675.1C1549,675 1549.2,674.9 1549.4,674.8C1549.5,674.7 1549.7,674.7 1549.8,674.6C1550,674.5 1550.2,674.4 1550.4,674.2C1550.5,674.1 1550.6,674.1 1550.7,674C1550.9,673.9 1551.1,673.7 1551.3,673.5C1551.4,673.4 1551.5,673.4 1551.6,673.3C1551.9,673.1 1552.1,672.8 1552.3,672.5L1629.3,579.5C1629.5,579.3 1629.6,579.1 1629.8,578.8L1629.9,578.7C1630,578.5 1630.2,578.2 1630.3,578C1630.3,577.9 1630.4,577.8 1630.4,577.7C1630.5,577.5 1630.6,577.2 1630.7,577C1630.7,576.9 1630.8,576.9 1630.8,576.8C1630.9,576.5 1631,576.2 1631.1,575.9C1631.1,575.8 1631.1,575.7 1631.2,575.7C1631.3,575.5 1631.3,575.2 1631.3,575L1631.3,574.7C1631.3,574.4 1631.4,574.1 1631.4,573.7L1631.4,315.9C1631.4,315.5 1631.4,315.2 1631.3,314.8C1630.9,314.7 1630.8,314.6 1630.8,314.5ZM1546.9,650.7L1515,584.4L1543.7,555.7L1606.9,578.4L1546.9,650.7ZM1447.5,573.5L1405.8,537.2L1411.5,412.4L1413.8,362.9L1448.2,324.9L1500.3,324.9L1515.1,340.4L1535.9,362.2L1532.4,541.6L1500.4,573.6L1447.5,573.6L1447.5,573.5ZM1334.9,584.8L1395.4,552.1L1433,584.8L1400.3,651.9L1334.9,584.8ZM1400.4,250.2L1433.3,314.4L1402.8,348.1L1335.3,313.6L1400.4,250.2ZM1395.7,364.7L1387.9,535.7L1329.2,567.4L1329.2,330.6L1395.7,364.7ZM1550.4,539L1553.8,363.9L1612.9,331.1L1612.9,561.4L1550.4,539ZM1607.4,313.7L1546.7,347.4L1516.9,316.2L1514.9,314.1L1545.5,248.9L1607.4,313.7ZM1527.8,244.3L1498.4,306.9L1449.7,306.9L1417.6,244.3L1527.8,244.3ZM1417.2,658.3L1449.8,591.6L1498.5,591.6L1530.6,658.3L1417.2,658.3Z" style="fill-rule:nonzero;"/>
        </g>
    </g>
</svg>
