<?xml version="1.0" encoding="UTF-8" standalone="no"?>
<!DOCTYPE svg PUBLIC "-//W3C//DTD SVG 1.1//EN" "http://www.w3.org/Graphics/SVG/1.1/DTD/svg11.dtd">
<svg width="100%" height="100%" viewBox="0 0 1713 1343" version="1.1" xmlns="http://www.w3.org/2000/svg" xmlns:xlink="http://www.w3.org/1999/xlink" xml:space="preserve" xmlns:serif="http://www.serif.com/" style="fill-rule:evenodd;clip-rule:evenodd;stroke-linejoin:round;stroke-miterlimit:2;">
    <g>
        <path d="M991.2,666.1C948.4,666.1 908.6,643.8 879.2,603.3C851.5,565.1 836.2,514.7 836.2,461.4L836.2,461.2C836.2,412.4 849.3,365.1 873,328.2C902.4,282.5 945.4,256.3 991.2,256.3L991.6,256.3C1034.3,256.4 1074,278.7 1103.2,319.1C1104.6,321 1105.9,323 1107.4,325.2C1107.4,325.2 1107.4,325.3 1107.5,325.3C1132.4,362.6 1146.2,410.9 1146.2,461.1L1146.2,461.3C1146.2,514.6 1130.9,565 1103.2,603.2C1073.9,643.8 1034.1,666.1 991.2,666.1Z" style="fill:rgb(238,42,123);fill-rule:nonzero;"/>
        <path d="M850.7,461C850.7,511.3 865,558.7 891,594.5C917.6,631.2 953.2,651.4 991.3,651.4C1029.4,651.4 1065,631.2 1091.6,594.5C1117.5,558.7 1131.8,511.3 1131.9,461L1131.9,460.9C1131.9,413.2 1119,368 1095.6,333C1094.3,331.1 1093,329.2 1091.7,327.3C1065.1,290.7 1029.6,270.5 991.5,270.4L991.4,270.4C950.7,270.4 912,294.2 885.3,335.7C863,370.3 850.8,414.8 850.8,460.9L850.7,461ZM895.5,353.5L935.8,382.4L916.1,451L868.9,451.7C870.3,415.9 879.5,381.6 895.5,353.5ZM990.5,352.3L1027.7,383.7L1047.9,460.1L1031.2,535.3L991.5,564.3L953.5,535.3L932.3,460L954.2,383.8L990.5,352.3ZM1113.8,451.7L1064.2,451L1046,382.1L1085.8,350.9C1102.1,378.6 1112.3,413.5 1113.8,451.7ZM1088.4,566.1L1049.3,536.9L1064.4,469.1L1113.8,469.8C1112.5,505.9 1103.2,539.1 1088.4,566.1ZM868.9,469.7L916.1,469L935.3,537.1L895.3,567.8C879.9,540.6 870.2,506.7 868.9,469.7ZM905,583.1L945.6,551.9L982.3,580L982.3,632.9C952.3,629.7 925.2,611.3 905,583.1ZM1000.3,632.8L1000.3,580.1L1039.1,551.8L1078.8,581.5C1058.6,610.6 1031,629.7 1000.3,632.8ZM1075.8,335.9L1036,367.1L999.6,336.4L1000.3,288.8C1029.4,291.8 1055.8,309.1 1075.8,335.9ZM982.2,288.9L981.5,336.4L945.7,367.3L905.2,338.3C926,309.5 953.3,291.9 982.2,288.9Z" style="fill-rule:nonzero;"/>
    </g>
    <g>
        <path d="M527,617.8L526.1,617.8C525.4,617.8 524.8,617.7 524.4,617.6C523.9,617.6 523.4,617.5 522.9,617.4C522,617.2 521.3,617.1 520.9,616.9C520.5,616.8 520,616.7 519.4,616.5C518.5,616.2 517.7,615.9 517.2,615.6C516.9,615.5 516.5,615.3 516.1,615.1C515.2,614.6 514.2,614 513.3,613.4C513.2,613.3 513,613.2 512.9,613.1L380.4,513.4C380.3,513.3 380.2,513.3 380.1,513.2C379.8,512.9 379.4,512.7 379.1,512.4C378.9,512.3 378.8,512.1 378.6,512C378.1,511.5 377.6,511 377.1,510.5C376.9,510.3 376.7,510.1 376.6,509.9C376.3,509.6 376,509.2 375.7,508.8C375.5,508.6 375.3,508.3 375.2,508.1C375,507.8 374.8,507.6 374.7,507.3C374.6,507.2 374.4,506.9 374.4,506.8L302.5,386.2C302.4,386 302.2,385.8 302.1,385.5C302,385.2 301.8,385 301.7,384.7C301.6,384.4 301.4,384.1 301.3,383.8C301.2,383.5 301.1,383.2 300.9,383C300.8,382.7 300.7,382.4 300.6,382.2L279.2,323.6C279.1,323.4 279.1,323.2 279,323C278.9,322.8 278.9,322.6 278.8,322.3L278.8,322.1C278.8,321.9 278.7,321.8 278.7,321.6C278.6,321.3 278.5,321 278.5,320.6C278.4,320.3 278.4,320 278.3,319.7C278.2,319.2 278.1,318.7 278.1,318.2C278,317.7 278,317.1 278,316.5L278,227.3C278,226.7 278.1,226 278.2,225.4C278.2,225.1 278.3,224.8 278.3,224.6C278.4,224 278.5,223.3 278.7,222.7C278.8,222.5 278.8,222.2 278.9,222C279.1,221.3 279.4,220.5 279.6,219.8C279.7,219.6 279.7,219.5 279.8,219.3C279.9,219 280,218.7 280.2,218.4C280.4,217.9 280.7,217.4 281,216.9C281.1,216.7 281.2,216.5 281.3,216.3C281.8,215.5 282.3,214.8 282.8,214.1C282.9,214 283,213.8 283.1,213.7C283.5,213.2 283.8,212.8 284.2,212.5L343.5,148.1C343.6,148 343.7,147.9 343.8,147.7L345.1,146.4C345.3,146.2 345.6,145.9 345.9,145.7C346.2,145.5 346.5,145.2 346.8,145C347.1,144.8 347.4,144.6 347.7,144.4C348,144.2 348.3,144 348.7,143.8C348.9,143.7 349.2,143.5 349.5,143.3C349.8,143.1 350.1,143 350.5,142.8C350.8,142.7 351,142.6 351.3,142.4C351.5,142.3 351.7,142.2 351.9,142.1C352.2,142 352.5,141.9 352.9,141.7C353.1,141.6 353.4,141.5 353.7,141.4C354.2,141.3 354.6,141.1 355,141C356.1,140.7 357.1,140.6 358.1,140.4L448.8,130.3C449.4,130.2 449.9,130.2 450.3,130.2L452.1,130.2C452.6,130.2 453.1,130.3 453.6,130.3L453.7,130.3C454.1,130.3 454.8,130.4 455.6,130.6C456.1,130.7 456.6,130.8 457.1,130.9C457.7,131.1 458.3,131.2 459,131.5C459.4,131.7 459.9,131.8 460.3,132C460.7,132.1 461.2,132.3 461.7,132.6L462.9,133.2L527.3,169.7L595.4,133C596.3,132.5 597.3,132.1 598.3,131.7C598.4,131.6 598.6,131.6 598.7,131.5C599.7,131.2 600.7,130.9 601.7,130.7C601.9,130.7 602.1,130.6 602.2,130.6C603.3,130.4 604.2,130.3 605.2,130.2L606.5,130.2C607.1,130.2 607.7,130.2 608.3,130.3C608.4,130.3 608.9,130.4 608.9,130.4L697.2,139.2C697.5,139.2 697.7,139.3 698,139.3C698.3,139.3 698.5,139.4 698.8,139.4C699.2,139.5 699.6,139.5 700,139.6L700.1,139.6C700.4,139.7 700.6,139.7 700.9,139.8C701.3,139.9 701.7,140 702.1,140.2C702.4,140.3 702.6,140.4 702.9,140.5C703,140.5 703.1,140.6 703.3,140.6C703.9,140.8 704.5,141.1 705.1,141.4C705.3,141.5 705.4,141.6 705.6,141.7C706.1,141.9 706.5,142.2 707,142.5C707.3,142.7 707.6,142.9 707.9,143C708.3,143.2 708.6,143.4 708.8,143.6C709.1,143.8 709.4,144.1 709.7,144.3C710,144.5 710.2,144.7 710.5,145C710.7,145.2 710.9,145.4 711.1,145.6C711.3,145.8 711.5,146 711.7,146.1L771,207C771.3,207.3 771.5,207.5 771.7,207.8C771.9,208 772,208.1 772.2,208.3C772.6,208.8 773,209.3 773.3,209.8C773.5,210 773.6,210.3 773.8,210.5C774.2,211.1 774.6,211.7 774.9,212.4C775,212.5 775.1,212.8 775.2,212.9C775.3,213.2 775.5,213.5 775.6,213.7C775.8,214.2 776,214.7 776.2,215.2C776.3,215.4 776.4,215.7 776.5,216C776.7,216.6 776.9,217.1 777,217.7C777.1,218 777.2,218.3 777.2,218.6C777.4,219.4 777.5,220.3 777.6,221.1C777.6,221.2 777.6,221.6 777.7,221.8C777.7,222.3 777.8,222.8 777.8,223.3L777.8,315.9C777.8,316.8 777.7,317.7 777.6,318.6C777.6,318.8 777.5,319.1 777.5,319.3C777.4,319.9 777.3,320.5 777.1,321.1C777,321.4 777,321.7 776.9,322L759.2,382.7C759.2,382.8 759.1,383 759.1,383.1C758.9,383.9 758.6,384.7 758.2,385.4C758.1,385.6 758,385.8 757.9,386C757.6,386.7 757.3,387.3 756.9,387.8C756.8,388 756.6,388.3 756.5,388.5L687,498.4C685.5,500.7 683.7,502.7 681.6,504.4L541.4,612.9C540.9,613.3 540.3,613.7 539.7,614.1C539.6,614.2 539.5,614.2 539.4,614.3C538.7,614.7 537.9,615.2 537.1,615.5C536.9,615.6 536.7,615.7 536.5,615.8C535.7,616.2 534.8,616.5 533.8,616.8L533.4,616.9C532.4,617.2 531.4,617.4 530.5,617.5C530.4,617.5 530.2,617.5 530,617.6C529,617.8 528.1,617.8 527,617.8C527.1,617.8 527,617.8 527,617.8Z" style="fill:rgb(203,28,237);fill-rule:nonzero;"/>
        <path d="M292.3,315L292.3,315.5C292.3,315.7 292.3,315.9 292.4,316.1C292.4,316.3 292.4,316.5 292.5,316.7C292.5,316.8 292.5,316.9 292.6,317C292.6,317.2 292.7,317.4 292.7,317.5L292.7,317.6C292.7,317.7 292.8,317.8 292.8,317.9C292.8,318 292.8,318 292.9,318.1L314.4,376.8C314.4,376.9 314.5,376.9 314.5,377C314.6,377.1 314.6,377.3 314.7,377.4C314.8,377.5 314.8,377.6 314.9,377.8C315,377.9 315,378.1 315.1,378.2C315.1,378.3 315.2,378.3 315.2,378.4L387.1,499L387.1,499.1C387.2,499.3 387.3,499.4 387.4,499.6C387.5,499.7 387.5,499.8 387.6,499.8C387.7,500 387.9,500.1 388,500.3L388.9,501.2C389.1,501.4 389.3,501.5 389.4,501.6L521.9,601.3C522.3,601.6 522.7,601.8 523.1,602C523.2,602 523.3,602.1 523.4,602.1C523.7,602.3 524,602.4 524.4,602.5C524.6,602.6 524.8,602.6 524.9,602.6C525.2,602.7 525.4,602.7 525.7,602.8C525.9,602.8 526.1,602.8 526.3,602.9C526.5,602.9 526.7,603 526.9,603L527.3,603C527.7,603 528.1,603 528.5,602.9L528.7,602.9C529.1,602.8 529.4,602.8 529.8,602.7C529.9,602.7 529.9,602.7 530,602.6C530.4,602.5 530.7,602.4 531,602.2C531,602.2 531.1,602.2 531.1,602.1C531.4,601.9 531.8,601.8 532.1,601.6C532.3,601.5 532.5,601.3 532.7,601.1L609.4,541.7L672.8,492.6C673.6,492 674.3,491.2 674.9,490.3L744.3,380.5C744.3,380.5 744.3,380.4 744.4,380.4C744.6,380.1 744.7,379.8 744.9,379.5C744.9,379.4 745,379.4 745,379.3C745.1,379 745.3,378.6 745.4,378.3L745.4,378.2L763.1,317.6L763.1,317.4C763.2,317.1 763.3,316.8 763.3,316.5L763.3,316.3C763.4,315.9 763.4,315.5 763.4,315.1L763.4,222.1C763.4,221.8 763.3,221.4 763.2,221.1C763.2,221 763.2,220.9 763.1,220.8C763,220.6 763,220.3 762.9,220.1C762.9,220 762.8,219.9 762.8,219.8C762.7,219.6 762.6,219.3 762.5,219.1C762.5,219 762.5,219 762.4,218.9L762.4,218.8C762.2,218.5 762.1,218.2 761.9,217.9C761.9,217.8 761.8,217.8 761.8,217.7C761.7,217.5 761.5,217.3 761.3,217.1C761.2,217 761.1,216.9 761.1,216.8C761,216.7 761,216.6 760.9,216.6L701.5,156L700.5,155C700.4,154.9 700.3,154.8 700.1,154.8C700,154.7 699.9,154.7 699.8,154.6C699.6,154.5 699.4,154.4 699.2,154.3C699.2,154.3 699.1,154.3 699.1,154.2C698.8,154.1 698.6,154 698.3,153.9C698.2,153.9 698.2,153.9 698.1,153.8C697.9,153.7 697.7,153.7 697.5,153.6C697.4,153.6 697.3,153.5 697.2,153.5C697,153.5 696.9,153.4 696.7,153.4C696.6,153.4 696.4,153.4 696.3,153.3L696.1,153.3L607.8,144.5L606.2,144.5C605.8,144.5 605.4,144.6 605.1,144.6L604.9,144.6C604.5,144.7 604.1,144.8 603.8,144.9C603.7,144.9 603.7,144.9 603.6,145C603.2,145.1 602.8,145.3 602.4,145.5L599.7,146.9L599.6,146.9L527.2,185.9L455.9,145.4C455.8,145.4 455.8,145.3 455.7,145.3C455.6,145.3 455.6,145.2 455.5,145.2C455.4,145.1 455.2,145.1 455.1,145C454.9,144.9 454.7,144.8 454.5,144.8C454.3,144.7 454,144.7 453.8,144.6C453.6,144.5 453.4,144.5 453.2,144.5C453,144.5 452.7,144.4 452.5,144.4C452.3,144.4 452.1,144.4 451.9,144.3L450.6,144.3L359.8,154.4C359.4,154.4 359,154.5 358.6,154.6C358.4,154.6 358.3,154.7 358.1,154.7C358,154.7 357.9,154.8 357.8,154.8C357.6,154.9 357.5,154.9 357.3,155L357.2,155C357.1,155 357.1,155.1 357,155.1C356.8,155.2 356.7,155.2 356.5,155.3C356.4,155.4 356.3,155.4 356.2,155.5C356.1,155.6 355.9,155.7 355.8,155.7C355.7,155.8 355.6,155.9 355.5,155.9C355.4,156 355.3,156.1 355.2,156.1C355.1,156.2 355,156.3 354.8,156.4L354.2,157L294.9,221.4C294.7,221.6 294.6,221.8 294.4,222L294.3,222.1C294.1,222.4 293.9,222.7 293.7,222.9C293.7,223 293.6,223.1 293.6,223.2C293.5,223.4 293.4,223.7 293.2,223.9C293.2,224 293.1,224 293.1,224.1L293.1,224.2C293,224.5 292.9,224.8 292.8,225.2L292.8,225.4C292.7,225.7 292.7,226 292.6,226.2L292.6,226.5C292.6,226.8 292.5,227 292.5,227.3L292.5,315C292.3,314.9 292.3,315 292.3,315ZM357.8,179.9L369.8,207.7L325.5,214.9L357.8,179.9ZM509.1,196.5L454.8,228L459.4,168.3L509.1,196.5ZM596.8,169.1L604.7,228.1L546.1,196.5L596.8,169.1ZM730.4,211.3L688.4,206.9L698.6,178.8L730.4,211.3ZM745.4,302.5L722.4,294.8L745.4,255.8L745.4,302.5ZM735.7,346.8L723.8,314.3L743.3,320.8L735.7,346.8ZM604.2,522.9L589,510.1L628.9,503.7L604.2,522.9ZM425.6,506.3L471.3,510.7L451.9,526.1L425.6,506.3ZM313,320.9L333.9,314.6L322.5,347L313,320.9ZM671.2,323.2L671.2,282L695.1,300.5L671.2,323.2ZM706.4,286.5L672.9,260.5L682.8,224.5L739.5,230.4L706.4,286.5ZM656.3,252.6L637.1,244L662.1,231.7L656.3,252.6ZM623.2,230.7L615.5,173.2L660.1,212.5L623.2,230.7ZM616.8,254.6L653.2,270.9L653.2,344.9L584.1,433.2L526.8,471.4L478.8,436.6L404.5,334.3C404.4,334.1 404.3,334 404.1,333.9L404.3,271.7L443.7,254.5L527,307.5C527.1,307.6 527.2,307.6 527.3,307.7C527.4,307.8 527.6,307.9 527.7,307.9C527.8,307.9 527.9,308 527.9,308C528,308.1 528.2,308.1 528.3,308.2C528.5,308.3 528.7,308.4 529,308.4C529.2,308.5 529.3,308.5 529.5,308.5C529.7,308.6 530,308.6 530.2,308.6C530.3,308.6 530.5,308.7 530.6,308.7C530.9,308.7 531.3,308.8 531.6,308.8L531.7,308.8C532.1,308.8 532.5,308.8 532.9,308.7C533,308.7 533.2,308.7 533.3,308.6C533.6,308.6 533.8,308.5 534.1,308.4C534.2,308.4 534.4,308.3 534.5,308.3C534.7,308.2 535,308.1 535.2,308C535.3,307.9 535.5,307.9 535.6,307.8C535.9,307.7 536.1,307.5 536.3,307.4C536.4,307.4 536.5,307.3 536.5,307.3L616.8,254.6ZM653.2,481.6L581.6,493L597.5,446.6L653.2,423.1L653.2,481.6ZM404,364.4L444.4,420L403.9,400.9L404,364.4ZM401.5,253.3L396,231.1L422.9,244L401.5,253.3ZM386.2,318L365.9,300.2L386.3,284.3L386.2,318ZM353.5,313.3L386.1,341.8L386,392.6L334,369L353.5,313.3ZM403.9,420.8L465.1,449.7L481,493.6L403.6,486.2L403.9,420.8ZM498.9,490L490.8,467.6L510.8,482.1L498.9,490ZM527,493L556.5,508.4L528.1,570.3L505.3,507.5L527,493ZM544.1,481.6L573.2,462.2L563.1,491.5L544.1,481.6ZM540.1,283.6L536.9,211.8L598.5,245.1L540.1,283.6ZM522,283L461.8,244.7L518.8,211.6L522,283ZM436.6,230.6L398.8,212.5L440.8,175.1L436.6,230.6ZM385.2,262.3L353.7,287L316.9,234.6L375.9,225L385.2,262.3ZM385.9,412.4L385.8,461.8L345.3,393.9L385.9,412.4ZM490.2,518.7L508.3,568.6L466.7,537.3L490.2,518.7ZM571.5,518.9L589.7,534.2L550.6,564.5L571.5,518.9ZM653.2,403.7L618.7,418.2L653.2,374.2L653.2,403.7ZM671.2,351.2L672.4,349.6C673.5,348.2 674.1,346.6 674.3,345L705.2,315.8L725.4,370.9L671.3,395.7L671.3,351.2L671.2,351.2ZM672.1,199.2L633.6,165.2L682.6,170.1L672.1,199.2ZM386,199.7L373.7,171.2L424.4,165.6L386,199.7ZM337.2,294.8L310.2,302.9L310.2,256.4L337.2,294.8ZM671.2,462.3L671.2,415.5L712.9,396.4L671.2,462.3Z" style="fill-rule:nonzero;"/>
    </g>
    <g>
        <path d="M711.1,1007.3L710.7,1007.3C710.2,1007.3 709.7,1007.2 709.1,1007.2C708.9,1007.2 708.7,1007.2 708.5,1007.1C708,1007 707.5,1006.9 707,1006.8C706.8,1006.8 706.3,1006.7 706.3,1006.6C705.8,1006.5 705.4,1006.4 704.9,1006.2C704.7,1006.2 704.5,1006.1 704.3,1006C703.6,1005.8 703,1005.5 702.3,1005.3C702.1,1005.2 701.9,1005.1 701.8,1005C701.4,1004.8 700.9,1004.6 700.5,1004.3C700.3,1004.2 700.1,1004.1 699.9,1004C699.5,1003.7 699.1,1003.5 698.7,1003.3C698.5,1003.2 698.3,1003 698,1002.8C697.6,1002.5 697.2,1002.2 696.8,1001.9C696.7,1001.8 696.5,1001.7 696.4,1001.5C696,1001.1 695.5,1000.7 695.1,1000.3L694.8,1000L476.5,771.5C476.2,771.2 475.9,770.9 475.7,770.6C475.6,770.4 475.4,770.3 475.3,770.1C474.6,769.3 474.1,768.5 473.5,767.6C473.4,767.4 473.3,767.2 473.2,767.1C472.8,766.5 472.5,765.8 472.2,765.1C472.1,764.9 472,764.7 471.9,764.5C471.8,764.4 471.7,764 471.7,763.9C471.4,763.1 471.1,762.2 470.9,761.3C470.9,761.1 470.8,760.9 470.8,760.7C470.6,759.9 470.5,759.1 470.4,758.3C470.4,758.1 470.3,757.9 470.3,757.7C470.2,756.7 470.2,755.8 470.2,754.8L470.2,754.1C470.3,753.2 470.4,752.3 470.5,751.4L470.5,751.2C470.7,750.2 470.9,749.2 471.3,748.2C471.4,748 471.4,747.8 471.5,747.6C472.2,745.7 473.1,743.9 474.3,742.2C474.4,742 474.6,741.8 474.7,741.7C475.4,740.8 476,740 476.7,739.3L546.9,666.5C547.4,665.9 548,665.4 548.6,664.9C548.8,664.7 549.1,664.5 549.4,664.3C549.8,664 550.1,663.8 550.5,663.5C550.8,663.3 551.1,663.1 551.4,662.9C551.8,662.7 552.1,662.4 552.5,662.2C552.8,662 553.1,661.9 553.4,661.7C553.8,661.5 554.1,661.3 554.5,661.2C554.8,661.1 555.2,660.9 555.5,660.8C555.9,660.6 556.3,660.5 556.7,660.4C557.1,660.3 557.4,660.2 557.8,660.1C558.2,660 558.6,659.9 559,659.8C559.4,659.7 559.8,659.7 560.1,659.6C560.5,659.5 560.9,659.5 561.3,659.4C561.7,659.4 562,659.3 562.4,659.3C562.8,659.3 563.2,659.3 563.5,659.2L866.1,659.2C866.5,659.2 866.9,659.2 867.3,659.3C867.6,659.3 868,659.4 868.3,659.4C868.7,659.5 869.2,659.5 869.6,659.6C869.9,659.7 870.2,659.7 870.5,659.8C870.9,659.9 871.4,660 871.8,660.2C872.1,660.3 872.3,660.4 872.6,660.5C873.1,660.7 873.5,660.8 874,661C874.3,661.1 874.5,661.2 874.8,661.3C875.3,661.5 875.7,661.7 876.1,662C876.4,662.1 876.6,662.3 876.9,662.5C877.3,662.7 877.7,663 878,663.2C878.3,663.4 878.6,663.6 878.9,663.8C879.3,664.1 879.6,664.3 879.9,664.6C880.1,664.8 880.4,665 880.6,665.2C880.8,665.4 881.1,665.6 881.3,665.8C881.4,665.9 881.9,666.5 882,666.5L957.3,745.7C957.5,745.9 957.7,746.2 957.9,746.4C958.2,746.7 958.4,747 958.7,747.3C958.9,747.5 959.1,747.8 959.3,748.1C959.6,748.5 959.8,748.8 960,749.1C960.2,749.4 960.4,749.7 960.6,750L948.1,757.2L960.6,750.1C960.8,750.4 961,750.7 961.1,751C961.3,751.3 961.4,751.7 961.6,752C961.8,752.4 961.9,752.7 962.1,753.1C962.2,753.4 962.4,753.8 962.5,754.1L962.5,754.2C962.6,754.5 962.7,754.8 962.8,755.2C962.9,755.6 963,756 963.1,756.3C963.2,756.7 963.3,757.1 963.3,757.5C963.4,757.9 963.4,758.3 963.5,758.7C963.6,759.1 963.6,759.4 963.6,759.8C963.6,760.3 963.7,760.7 963.7,761.1L963.7,762.3C963.7,763 963.6,763.7 963.6,764.3C963.6,764.6 963.5,764.8 963.5,765.1C963.4,765.6 963.3,766.1 963.2,766.5C963.1,766.8 963.1,767.1 963,767.5C962.9,767.9 962.8,768.4 962.6,768.8C962.5,769.1 962.4,769.3 962.3,769.6C962.1,770.1 962,770.5 961.8,771C961.7,771.1 961.7,771.3 961.6,771.4C960.4,774 958.7,776.4 956.7,778.4L728.1,1000.6C728,1000.7 727.8,1000.8 727.7,1001C727.1,1001.6 726.4,1002.2 725.6,1002.7C725.4,1002.9 725.2,1003 725,1003.1C724.2,1003.7 723.3,1004.2 722.4,1004.7C722.2,1004.8 722,1004.9 721.8,1005C721,1005.4 720.3,1005.7 719.5,1005.9C719.3,1006 719.1,1006.1 718.8,1006.1C717.8,1006.4 716.8,1006.7 715.8,1006.8C715.5,1006.9 715.3,1006.9 715,1006.9C713.9,1007.1 712.8,1007.1 711.8,1007.1C711.7,1007.3 711.2,1007.3 711.1,1007.3Z" style="fill:rgb(209,211,212);fill-rule:nonzero;"/>
        <path d="M949.4,761.2L949.4,760.2C949.4,760 949.4,759.9 949.3,759.7C949.3,759.6 949.2,759.4 949.2,759.3C949.2,759.2 949.1,759 949.1,758.9C949.1,758.8 949,758.6 949,758.5C949,758.4 948.9,758.2 948.9,758.1C948.8,758 948.8,757.8 948.7,757.7C948.6,757.6 948.6,757.4 948.5,757.3C948.4,757.2 948.4,757 948.3,756.9C948.2,756.8 948.2,756.6 948.1,756.5C948,756.4 947.9,756.2 947.8,756.1C947.7,756 947.6,755.9 947.6,755.8C947.5,755.7 947.4,755.5 947.2,755.4C947.1,755.3 947.1,755.3 947,755.2L871.7,676L871,675.3C870.9,675.2 870.7,675.1 870.6,675C870.5,674.9 870.4,674.8 870.3,674.8C870.2,674.7 870,674.6 869.9,674.5C869.8,674.4 869.7,674.4 869.6,674.3C869.4,674.2 869.3,674.1 869.1,674.1C869,674.1 868.9,674 868.8,674C868.6,673.9 868.5,673.9 868.3,673.8C868.2,673.8 868.1,673.7 868,673.7C867.8,673.6 867.7,673.6 867.5,673.6C867.4,673.6 867.3,673.5 867.2,673.5C867,673.5 866.9,673.4 866.7,673.4L562.8,673.4C562.6,673.4 562.5,673.4 562.3,673.5C562.2,673.5 562,673.5 561.9,673.6C561.7,673.6 561.6,673.7 561.4,673.7C561.3,673.7 561.1,673.8 561,673.8C560.8,673.9 560.7,673.9 560.5,674C560.4,674 560.3,674.1 560.1,674.1C559.9,674.2 559.8,674.2 559.6,674.3C559.5,674.4 559.4,674.4 559.3,674.5C559.1,674.6 559,674.7 558.9,674.8C558.8,674.9 558.7,674.9 558.6,675C558.4,675.1 558.3,675.2 558.1,675.4C558,675.5 557.9,675.5 557.9,675.6C557.7,675.8 557.5,676 557.2,676.2L487,748.6C486.7,748.9 486.5,749.2 486.2,749.5C486.1,749.6 486.1,749.6 486,749.7C485.5,750.4 485.2,751.1 484.9,751.8C484.9,751.9 484.8,751.9 484.8,752C484.7,752.4 484.6,752.7 484.5,753.1C484.4,753.5 484.4,753.8 484.4,754.2L484.4,755.7C484.4,756.1 484.5,756.4 484.6,756.7C484.6,756.8 484.6,756.8 484.7,756.9C484.8,757.3 484.9,757.7 485.1,758L485.1,758.1C485.2,758.4 485.4,758.8 485.6,759.1C485.6,759.2 485.7,759.2 485.7,759.3C485.9,759.6 486.1,759.9 486.4,760.3C486.5,760.4 486.5,760.4 486.6,760.5C486.7,760.6 486.8,760.8 486.9,760.9L705.2,989.5L705.9,990.2C706.1,990.3 706.2,990.5 706.4,990.6C706.5,990.7 706.6,990.7 706.6,990.8C706.8,990.9 706.9,991 707.1,991.1C707.2,991.1 707.3,991.2 707.3,991.2C707.5,991.3 707.7,991.4 707.9,991.5C707.9,991.5 708,991.5 708,991.6C708.2,991.7 708.5,991.8 708.8,991.9C708.9,991.9 708.9,991.9 709,992C709.2,992.1 709.4,992.1 709.6,992.2C709.7,992.2 709.8,992.2 709.9,992.3C710.1,992.3 710.3,992.4 710.5,992.4L711.7,992.4C712.1,992.4 712.5,992.4 713,992.3L713.3,992.3C713.7,992.2 714.1,992.1 714.5,992C714.6,992 714.6,991.9 714.7,991.9C715,991.8 715.4,991.6 715.7,991.5C715.8,991.5 715.8,991.4 715.9,991.4C716.3,991.2 716.6,991 716.9,990.8C717,990.7 717,990.7 717.1,990.6C717.4,990.4 717.7,990.1 718,989.9L946.6,767.7C947.4,766.9 948.1,766 948.5,765C948.5,765 948.5,764.9 948.6,764.9C948.7,764.7 948.8,764.5 948.8,764.3C948.8,764.2 948.9,764.1 948.9,764C949,763.8 949,763.6 949,763.5C949,763.4 949.1,763.3 949.1,763.2C949.1,763 949.2,762.8 949.2,762.6L949.2,762.4C949.2,762.1 949.3,761.8 949.3,761.5C949.4,761.3 949.4,761.2 949.4,761.2ZM777.7,767.9L712.2,955.1L651.7,766.1L777.7,767.9ZM661.3,748.3L716.7,694.9L769,749.9L661.3,748.3ZM737.9,691.1L843.7,691.1L790.3,746.1L737.9,691.1ZM639.4,744.4L585.6,691.1L694.6,691.1L639.4,744.4ZM563.9,694.9L617.2,747.6L514.5,746.1L546.3,713.2L563.9,694.9ZM632.7,765.9L691.3,949L514.8,764.2L632.7,765.9ZM796.6,768.2L918.5,769.9L732.9,950.4L796.6,768.2ZM811.3,750.4L865,695.1L919.1,752L811.3,750.4Z" style="fill-rule:nonzero;"/>
    </g>
    <g transform="matrix(0.544639,0.838671,-0.838671,0.544639,732.025,90.6568)">
        <path d="M128.3,910.9L127,910.9C126.4,910.9 126,910.8 125.6,910.8C125.2,910.8 124.8,910.7 124.4,910.6C123.8,910.5 123.2,910.4 122.7,910.3C122.2,910.2 121.7,910.1 121.3,909.9C120.7,909.7 120.1,909.5 119.7,909.3C119.3,909.1 118.8,909 118.4,908.8C117.9,908.6 117.4,908.3 116.9,908C116.5,907.8 116.1,907.5 115.7,907.3C115,906.9 114.5,906.5 114.2,906.3C113.9,906.1 113.5,905.8 113.1,905.5C112.5,905 112,904.5 111.8,904.3C111.5,904 111.2,903.7 110.9,903.3C110.3,902.7 109.9,902.2 109.7,901.8C109.4,901.5 109.2,901.1 108.9,900.7C108.3,899.8 107.8,898.9 107.3,898L69.1,821C68.7,820.1 68.3,819.2 68,818.3C67.9,817.9 67.7,817.5 67.6,817C67.5,816.6 67.3,816.1 67.2,815.4C67.1,815 67,814.5 67,814C67,813.7 66.9,813.2 66.8,812.5C66.8,812.1 66.7,811.6 66.7,811.1L66.7,809.6C66.7,809.2 66.8,808.7 66.8,808.2C66.8,807.7 66.9,807.2 67,806.8C67.1,806.3 67.2,805.8 67.3,805.4C67.4,804.9 67.5,804.4 67.7,803.9C67.8,803.5 68,803 68.2,802.6C68.4,802.1 68.5,801.7 68.8,801.2C69,800.8 69.2,800.4 69.4,800C69.6,799.6 69.8,799.1 70.1,798.7C70.1,798.6 172.8,631.2 172.8,631.2C172.9,631.1 172.9,631 173,630.9C173.5,630.1 174,629.4 174.6,628.7C175,628.2 175.4,627.8 175.5,627.6C175.8,627.3 176.2,626.9 176.7,626.4C177.1,626 177.4,625.7 177.8,625.5C178,625.3 178.5,624.9 179.2,624.4C179.6,624.1 179.9,623.9 180.3,623.7C180.7,623.4 181.1,623.2 181.6,622.9C181.8,622.8 182.1,622.6 182.5,622.4C182.9,622.2 183.2,622 183.6,621.9C183.9,621.8 184.1,621.7 184.3,621.6C185,621.3 185.7,621.1 186.4,620.9C186.5,620.9 186.7,620.8 186.8,620.8C187.7,620.6 188.7,620.4 189.6,620.2C189.8,620.2 190,620.1 190.2,620.1C190.8,620 191.3,620 191.9,620L192.6,620L285.9,619.5L286.7,619.5C287.4,619.5 288.1,619.6 288.8,619.7C289,619.7 289.2,619.7 289.3,619.8C290.4,620 291.4,620.2 292.4,620.5C292.6,620.6 292.8,620.6 293,620.7C293.8,620.9 294.5,621.2 295.2,621.5C295.4,621.6 295.7,621.7 295.9,621.8C296.7,622.2 297.4,622.6 298.2,623C298.3,623.1 298.6,623.2 298.6,623.2C299.4,623.7 300.2,624.3 300.9,624.9C301.1,625.1 301.3,625.2 301.4,625.4C302,625.9 302.6,626.5 303.1,627.1C303.3,627.3 303.4,627.5 303.6,627.6C304.2,628.3 304.8,629.1 305.4,630C305.5,630.2 305.6,630.3 305.7,630.5C306,631.1 306.4,631.7 306.7,632.3C306.8,632.6 307,632.8 307.1,633.1L418.7,876.1C418.8,876.3 418.9,876.5 419,876.8C419.2,877.3 419.4,877.9 419.6,878.5C419.7,878.7 419.7,878.9 419.8,879.1C420.1,879.9 420.3,880.8 420.4,881.6C420.4,881.9 420.5,882.1 420.5,882.3C420.6,882.9 420.7,883.6 420.7,884.3L420.7,887.4C420.7,887.7 420.7,887.9 420.6,888C420.5,888.7 420.5,889.3 420.3,890C420.3,890.2 420.2,890.4 420.2,890.6C420,891.5 419.8,892.4 419.5,893.2C419.4,893.4 419.4,893.6 419.3,893.8C419.1,894.4 418.8,895.1 418.5,895.7C418.4,895.9 418.3,896.1 418.2,896.3C417.8,897.1 417.4,897.8 417,898.5L416.9,898.7C416.8,898.9 416.7,899.1 416.5,899.2C416.2,899.7 415.8,900.2 415.4,900.7C415.2,900.9 415.1,901.1 414.9,901.3C413.8,902.6 412.5,903.8 411.1,904.8C411,904.9 410.8,905 410.6,905.2C410,905.6 409.4,906 408.7,906.4C408.6,906.4 408.4,906.6 408.4,906.6C407.7,907 406.9,907.4 406.1,907.7L405.5,907.9C404.8,908.2 404.2,908.4 403.5,908.6C403.3,908.7 403.1,908.7 402.9,908.8C402.1,909 401.3,909.2 400.4,909.3C400.2,909.3 399.8,909.4 399.8,909.4C399.1,909.5 398.4,909.5 397.8,909.6L397.1,909.6C397.5,909.1 128.4,910.9 128.3,910.9Z" style="fill:rgb(237,28,36);fill-rule:nonzero;"/>
        <path d="M397.6,894.3L397.7,894.3C398,894.3 398.3,894.3 398.6,894.2L398.8,894.2C399.1,894.2 399.5,894.1 399.8,894L399.9,894C400.2,893.9 400.5,893.8 400.8,893.7C400.9,893.7 400.9,893.6 401,893.6C401.3,893.5 401.6,893.3 401.9,893.2C402.2,893 402.4,892.9 402.7,892.7C402.8,892.7 402.8,892.6 402.9,892.6C403.4,892.2 403.9,891.7 404.4,891.2C404.5,891.1 404.5,891.1 404.6,891C404.8,890.8 405,890.5 405.1,890.3C405.1,890.3 405.1,890.2 405.2,890.2C405.4,889.9 405.5,889.6 405.7,889.4C405.7,889.3 405.8,889.2 405.8,889.2C405.9,888.9 406,888.7 406.1,888.4C406.1,888.3 406.1,888.3 406.2,888.2C406.3,887.9 406.4,887.6 406.4,887.2L406.4,887C406.4,886.7 406.5,886.4 406.5,886.2L406.5,884.8C406.5,884.5 406.4,884.3 406.4,884L406.4,883.8C406.3,883.5 406.3,883.2 406.2,882.8C406.2,882.7 406.2,882.7 406.1,882.6C406,882.3 405.9,882.1 405.8,881.8L405.8,881.7L294.2,638.7C294.2,638.7 294.2,638.6 294.1,638.6C294,638.3 293.8,638 293.6,637.7C293.6,637.6 293.5,637.6 293.5,637.5C293.3,637.2 293.1,636.9 292.8,636.6L292.7,636.5C292.5,636.3 292.3,636 292,635.8C291.9,635.7 291.9,635.7 291.8,635.6C291.5,635.4 291.2,635.1 290.9,634.9C290.6,634.7 290.3,634.5 289.9,634.4C289.8,634.4 289.7,634.3 289.6,634.3C289.3,634.2 289,634 288.7,634L288.5,634C288.1,633.9 287.7,633.8 287.4,633.7L287.2,633.7C286.9,633.7 286.5,633.6 286.2,633.6L286.1,633.6L193,634L192.9,634C192.6,634 192.3,634 192,634.1L191.8,634.1C191.4,634.1 191.1,634.2 190.7,634.3L190.6,634.3C190.3,634.4 190,634.5 189.7,634.6C189.6,634.6 189.5,634.7 189.4,634.7C189.3,634.8 189.2,634.8 189,634.9C188.9,634.9 188.9,635 188.8,635C188.6,635.1 188.4,635.2 188.2,635.4C188.1,635.5 187.9,635.6 187.8,635.7C187.6,635.8 187.4,636 187.3,636.1C187.2,636.2 187,636.3 186.9,636.4C186.7,636.6 186.6,636.7 186.4,636.9C186.3,637 186.2,637.1 186.1,637.3C185.9,637.6 185.6,637.9 185.4,638.2L185.4,638.3L82.6,805.3C82.5,805.5 82.4,805.6 82.3,805.8C82.2,806 82.1,806.1 82.1,806.3C82,806.5 82,806.7 81.9,806.9C81.8,807.1 81.8,807.2 81.7,807.4C81.6,807.6 81.6,807.8 81.6,808C81.6,808.2 81.5,808.3 81.5,808.5C81.5,808.7 81.5,808.9 81.4,809.1C81.4,809.3 81.4,809.4 81.3,809.6L81.3,810.7C81.3,810.9 81.4,811.1 81.4,811.3C81.4,811.5 81.4,811.6 81.5,811.8C81.5,812 81.6,812.2 81.7,812.4C81.7,812.5 81.8,812.7 81.8,812.8C81.9,813.2 82.1,813.5 82.2,813.9L120.4,890.9C120.6,891.3 120.8,891.6 121,892C121.1,892.1 121.2,892.2 121.3,892.3C121.5,892.5 121.6,892.7 121.8,892.9L122.6,893.7C122.7,893.8 122.9,893.9 123,894C123.2,894.1 123.4,894.3 123.6,894.4C123.7,894.5 123.9,894.6 124.1,894.7C124.3,894.8 124.5,894.9 124.7,895C124.9,895.1 125,895.1 125.2,895.2C125.4,895.3 125.6,895.4 125.8,895.4C126,895.5 126.2,895.5 126.3,895.5C126.5,895.6 126.7,895.6 127,895.6C127.2,895.6 127.4,895.6 127.6,895.7C127.7,895.7 127.9,895.7 128,895.8L128.6,895.8L397.6,894.3ZM104.5,818.6L162.9,816.7L129.4,868.8L104.5,818.6ZM141.2,744.1L166,798.6L106.6,800.5L141.2,744.1ZM191.9,661.4L218.6,715.6L158.5,715.9L191.9,661.4ZM234.6,738.6L361.7,862.8L193.4,802.5L234.6,738.6ZM181.1,788.4L156.3,733.9L216.4,733.6L181.1,788.4ZM234,706.2L207.2,651.6L269.4,651.3L234,706.2ZM183.5,818.1L346.7,876.7L144.9,878L183.5,818.1ZM244.5,723.2L284.5,661L369,844.9L244.5,723.2Z" style="fill-rule:nonzero;"/>
    </g>
    <g>
        <path d="M499.1,1246.9C498.4,1246.9 497.7,1246.9 497,1246.8C496.8,1246.8 496.5,1246.7 496.2,1246.7L496.3,1246.7C495.7,1246.6 495.1,1246.5 494.6,1246.4L494.5,1246.4C494.2,1246.3 494,1246.3 493.7,1246.2C493.2,1246.1 492.6,1245.9 492.1,1245.7C491.9,1245.6 491.6,1245.5 491.4,1245.5C490.6,1245.2 490,1244.9 489.3,1244.6C489.3,1244.6 489.2,1244.6 489.2,1244.5C488.3,1244.1 487.4,1243.6 486.5,1243C486.3,1242.9 486.1,1242.7 485.9,1242.6C485,1242 484.3,1241.4 483.6,1240.8L386.6,1152.3C386.3,1152 386,1151.7 385.7,1151.4C385.5,1151.2 385.3,1151 385.1,1150.7C384.5,1150 383.9,1149.3 383.4,1148.6C383.3,1148.4 383.2,1148.3 383.1,1148.1C382.7,1147.5 382.3,1146.9 382,1146.3C381.8,1146 381.7,1145.7 381.5,1145.4C381.2,1144.8 381,1144.3 380.8,1143.8C380.7,1143.5 380.6,1143.2 380.4,1142.9C380.2,1142.4 380,1141.8 379.9,1141.3C379.8,1141 379.7,1140.6 379.6,1140.3C379.5,1139.7 379.4,1139.2 379.3,1138.6C379.2,1138.3 379.2,1138 379.2,1137.7C379.1,1136.7 379,1135.9 379,1135L379,1020.9C379,1020 379.1,1019.1 379.2,1018.1C379.2,1017.8 379.3,1017.5 379.3,1017.1C379.4,1016.5 379.5,1015.9 379.7,1015.3C379.8,1015 379.9,1014.6 380,1014.3C380.2,1013.8 380.3,1013.2 380.6,1012.6C380.7,1012.3 380.8,1012 381,1011.6C381.2,1011.1 381.5,1010.6 381.7,1010C381.9,1009.7 382,1009.4 382.2,1009.1C382.6,1008.4 383,1007.7 383.5,1007.1C383.5,1007.1 383.7,1006.9 383.7,1006.8C384.2,1006.1 384.8,1005.4 385.4,1004.7L387,1003.1C387,1003.1 484.2,917.9 484.2,917.8C484.3,917.7 484.3,917.7 484.4,917.6C484.6,917.4 484.8,917.3 485,917.2C485.3,916.9 485.6,916.7 485.9,916.5C486.2,916.3 486.5,916.1 486.8,915.9C487.1,915.7 487.5,915.5 487.8,915.3C488.1,915.1 488.4,915 488.7,914.8C489.1,914.6 489.4,914.4 489.7,914.3C490,914.1 490.3,914 490.6,913.9C490.6,913.9 490.7,913.9 490.7,913.8C491.1,913.6 491.4,913.5 491.8,913.4C492.1,913.3 492.4,913.2 492.7,913.1C493.1,913 493.5,912.9 493.8,912.8C494.1,912.7 494.4,912.7 494.7,912.6L494.8,912.6C495.2,912.5 495.6,912.4 496.1,912.4C496.4,912.4 496.7,912.3 497,912.3C497.4,912.3 497.7,912.2 498.1,912.2L500.4,912.2C500.7,912.2 501.1,912.2 501.4,912.3C501.7,912.3 502.1,912.4 502.5,912.4L502.6,912.4C503,912.4 503.3,912.5 503.6,912.6L503.7,912.6C504,912.7 504.3,912.7 504.6,912.8C505.3,913 506.1,913.2 506.8,913.4C507.1,913.5 507.5,913.6 507.8,913.8C508.1,913.9 508.4,914 508.7,914.2C509.1,914.4 509.4,914.5 509.8,914.7C510.1,914.8 510.4,915 510.7,915.2C511.1,915.4 511.4,915.6 511.8,915.8C512.1,916 512.3,916.1 512.5,916.3C512.9,916.6 513.3,916.8 513.7,917.1C513.9,917.3 514.1,917.4 514.3,917.6C514.6,917.8 514.9,918.1 515.1,918.3L616.4,1008.5C617.6,1009.6 618.7,1010.8 619.7,1012.1C619.8,1012.2 619.9,1012.4 620,1012.6C620.3,1013.1 620.7,1013.6 621,1014.1C621.2,1014.4 621.3,1014.7 621.5,1015C621.7,1015.3 621.8,1015.6 622,1016L622,1016.1C622.1,1016.3 622.2,1016.4 622.2,1016.6C622.3,1016.8 622.4,1017 622.5,1017.2C622.7,1017.6 622.8,1018 623,1018.5C623.1,1018.8 623.2,1019.1 623.3,1019.4C623.4,1019.9 623.6,1020.3 623.7,1020.8C623.8,1021.1 623.8,1021.4 623.9,1021.6C624,1022.1 624.1,1022.7 624.1,1023.2C624.1,1023.5 624.2,1023.7 624.2,1024C624.2,1024.4 624.3,1024.8 624.3,1025.2L624.3,1140.6C624.3,1141.2 624.2,1141.7 624.1,1142.2C624.1,1142.6 624,1142.9 623.9,1143.3C623.8,1143.9 623.7,1144.4 623.6,1144.9C623.5,1145.3 623.4,1145.7 623.3,1146C623.2,1146.5 623,1147 622.8,1147.5C622.7,1147.8 622.5,1148.2 622.4,1148.5C622.2,1149 621.9,1149.5 621.7,1149.9C621.5,1150.2 621.3,1150.6 621.2,1150.9C620.9,1151.4 620.6,1151.8 620.3,1152.2C620.1,1152.5 619.9,1152.8 619.7,1153.1C619.4,1153.6 619,1154 618.6,1154.4C618.4,1154.7 618.2,1154.9 617.9,1155.2C617.2,1155.9 616.6,1156.5 615.9,1157.1L514.6,1241.4C514.1,1241.8 513.5,1242.3 513,1242.6C512.5,1243 512,1243.3 511.5,1243.6C511.4,1243.6 511.3,1243.7 511.3,1243.7C507.8,1245.7 503.8,1246.8 499.7,1246.8C499.4,1246.9 499.2,1246.9 499.1,1246.9Z" style="fill:rgb(215,223,35);fill-rule:nonzero;"/>
        <path d="M504.6,1230.5C504.8,1230.3 505,1230.2 505.2,1230L606.5,1145.7C606.8,1145.5 607,1145.2 607.3,1145C607.4,1144.9 607.5,1144.8 607.5,1144.7C607.7,1144.5 607.8,1144.4 607.9,1144.2C608,1144.1 608.1,1144 608.1,1143.9C608.2,1143.7 608.3,1143.6 608.4,1143.4C608.5,1143.3 608.5,1143.1 608.6,1143C608.7,1142.8 608.8,1142.6 608.9,1142.5C609,1142.4 609,1142.2 609.1,1142.1C609.2,1141.9 609.2,1141.7 609.3,1141.5C609.3,1141.4 609.4,1141.2 609.4,1141.1C609.4,1140.9 609.5,1140.7 609.5,1140.5C609.5,1140.4 609.6,1140.2 609.6,1140.1C609.6,1139.9 609.6,1139.7 609.7,1139.5L609.7,1024.8C609.7,1024.6 609.6,1024.4 609.6,1024.2C609.6,1024.1 609.6,1024 609.5,1023.9C609.5,1023.7 609.4,1023.5 609.3,1023.3C609.3,1023.2 609.2,1023.1 609.2,1023C609.1,1022.8 609.1,1022.7 609,1022.5C609,1022.4 608.9,1022.3 608.9,1022.1L608.9,1022C608.8,1021.9 608.7,1021.7 608.7,1021.6C608.6,1021.5 608.6,1021.4 608.5,1021.3C608.4,1021.1 608.2,1020.9 608.1,1020.6C608.1,1020.6 608.1,1020.5 608,1020.5C607.6,1020 607.2,1019.5 606.7,1019.1L505.4,928.9C505.3,928.8 505.2,928.7 505.1,928.7C505,928.6 504.9,928.6 504.8,928.5C504.7,928.4 504.5,928.3 504.4,928.2C504.3,928.1 504.2,928.1 504.1,928C504,927.9 503.8,927.8 503.7,927.8C503.6,927.7 503.5,927.7 503.4,927.6C503.3,927.5 503.1,927.5 503,927.4C502.9,927.3 502.8,927.3 502.6,927.2C502.5,927.2 502.4,927.1 502.2,927.1C501.9,927 501.6,926.9 501.3,926.9C501.2,926.9 501.1,926.8 501,926.8C500.9,926.8 500.7,926.8 500.6,926.7C500.4,926.7 500.3,926.7 500.1,926.6L498.2,926.6C498,926.6 497.9,926.7 497.7,926.7C497.6,926.7 497.5,926.7 497.3,926.8C497.1,926.8 497,926.9 496.9,926.9C496.8,926.9 496.7,927 496.5,927C496.4,927 496.2,927.1 496.1,927.2C496,927.2 495.9,927.3 495.7,927.4C495.6,927.5 495.4,927.5 495.3,927.6C495.2,927.7 495.1,927.7 495,927.8C494.9,927.9 494.8,928 494.6,928C494.5,928.1 494.4,928.1 494.3,928.2L493.7,928.8L396.7,1013.9C396.6,1014 396.5,1014.1 396.3,1014.3C396.2,1014.4 396.1,1014.5 396,1014.5C395.8,1014.8 395.5,1015 395.3,1015.3C395.1,1015.6 394.9,1015.9 394.8,1016.1C394.7,1016.2 394.7,1016.3 394.6,1016.4C394.5,1016.6 394.4,1016.8 394.3,1017C394.2,1017.1 394.2,1017.2 394.2,1017.4C394.1,1017.6 394.1,1017.8 394,1018C394,1018.1 393.9,1018.3 393.9,1018.4C393.8,1018.6 393.8,1018.9 393.8,1019.1C393.8,1019.2 393.8,1019.3 393.7,1019.4C393.7,1019.8 393.6,1020.1 393.6,1020.5L393.6,1134.6C393.6,1135 393.6,1135.3 393.7,1135.6C393.7,1135.7 393.7,1135.8 393.8,1135.9C393.8,1136.1 393.9,1136.4 393.9,1136.6C393.9,1136.7 394,1136.8 394,1137C394.1,1137.2 394.1,1137.4 394.2,1137.6C394.2,1137.7 394.3,1137.8 394.3,1138C394.4,1138.2 394.5,1138.4 394.6,1138.6C394.7,1138.7 394.7,1138.8 394.8,1138.9C394.9,1139.2 395.1,1139.4 395.3,1139.7C395.3,1139.7 395.3,1139.8 395.4,1139.8C395.6,1140.1 395.8,1140.3 396,1140.6C396.1,1140.7 396.2,1140.8 396.2,1140.8C396.3,1140.9 396.4,1141.1 396.6,1141.2L493.6,1229.7C493.9,1230 494.2,1230.2 494.5,1230.4C494.6,1230.5 494.7,1230.5 494.7,1230.6C495,1230.8 495.4,1231 495.7,1231.2C496,1231.3 496.3,1231.5 496.6,1231.6C496.7,1231.6 496.8,1231.7 496.9,1231.7C497.1,1231.8 497.3,1231.8 497.5,1231.9C497.6,1231.9 497.7,1231.9 497.8,1232C498,1232 498.2,1232.1 498.4,1232.1L498.7,1232.1C499,1232.1 499.3,1232.2 499.6,1232.2C501.1,1232.2 502.7,1231.8 504,1231C504.1,1230.8 504.4,1230.6 504.6,1230.5ZM491,954.7L492.5,1006L453.9,1036.5L418.4,1018.5L491,954.7ZM591.7,1123.5L562,1107.1L562,1053.5L591.7,1039.7L591.7,1123.5ZM510.4,1153L553.6,1123L584.9,1140.3L509,1203.4L510.4,1153ZM501.9,1137L463.9,1107L463.9,1051.6L501.8,1021.6L544.1,1052.3L544.1,1107.7L501.9,1137ZM554.1,1037.3L510.5,1005.6L509.1,956L584.6,1023.2L554.1,1037.3ZM445.9,1052.7L445.9,1105.4L411.4,1120.7L411.4,1035.1L445.9,1052.7ZM453.6,1121.7L492.5,1152.4L491.1,1203.2L418.7,1137.2L453.6,1121.7Z" style="fill-rule:nonzero;"/>
    </g>
    <g>
        <path d="M970.8,1261.4L969.8,1261.4C966.3,1261.2 962.8,1260.3 959.8,1258.6C959.8,1258.6 959.4,1258.4 959.2,1258.3C958.7,1258 958.3,1257.8 957.9,1257.5C957.6,1257.3 957.4,1257.1 957.1,1256.9C956.7,1256.6 956.4,1256.4 956,1256.1C955.8,1255.9 955.5,1255.7 955.2,1255.4L954.2,1254.4L793.3,1089.7C793.1,1089.5 792.8,1089.2 792.6,1089C792.4,1088.8 792.2,1088.5 792,1088.3L791.9,1088.2C791.7,1087.9 791.5,1087.7 791.3,1087.4C791,1087.1 790.8,1086.7 790.6,1086.4C790.4,1086.1 790.2,1085.8 790.1,1085.6C789.9,1085.2 789.6,1084.8 789.4,1084.4C789.3,1084.2 789.2,1083.9 789,1083.7C788.8,1083.2 788.6,1082.8 788.4,1082.4C788.3,1082.1 788.2,1081.9 788.1,1081.6C787.9,1081.2 787.8,1080.8 787.7,1080.3L787.7,1080.2C787.6,1080 787.6,1079.7 787.5,1079.5L787.5,1079.4C787.4,1079 787.3,1078.5 787.2,1078.1C787.1,1077.8 787.1,1077.4 787,1077.1C786.9,1076.7 786.9,1076.3 786.8,1075.9C786.8,1075.6 786.7,1075.2 786.7,1074.9L786.7,1072.3C786.7,1071.9 786.7,1071.6 786.8,1071.2C786.8,1070.9 786.9,1070.6 786.9,1070.3L786.9,1070.2C787,1069.8 787,1069.4 787.1,1069C787.2,1068.7 787.2,1068.4 787.3,1068.1C787.4,1067.6 787.5,1067.2 787.7,1066.7C787.8,1066.5 787.9,1066.2 788,1065.9C788.2,1065.4 788.3,1065 788.5,1064.5C788.6,1064.3 788.7,1064 788.8,1063.8C789,1063.4 789.2,1062.9 789.4,1062.5C789.5,1062.2 789.7,1062 789.9,1061.7C790.1,1061.3 790.4,1060.9 790.6,1060.6C790.8,1060.3 791,1060.1 791.2,1059.8C791.4,1059.5 791.7,1059.1 792,1058.8C792.2,1058.5 792.4,1058.3 792.7,1058C792.7,1058 793.1,1057.5 793.3,1057.4C793.5,1057.2 793.7,1057 793.9,1056.8L954.7,899.8C954.9,899.6 955.2,899.3 955.4,899.1C955.7,898.8 956,898.6 956.3,898.3C956.6,898.1 956.9,897.8 957.2,897.6C957.5,897.4 957.8,897.1 958.2,896.9C958.5,896.7 958.8,896.5 959.2,896.3C959.5,896.1 959.9,895.9 960.2,895.8C960.6,895.6 960.9,895.5 961.2,895.3C961.2,895.3 961.3,895.3 961.3,895.2C961.7,895 962,894.9 962.3,894.7C962.6,894.6 962.9,894.4 963.3,894.3L963.4,894.3C963.8,894.2 964.1,894.1 964.4,894C964.8,893.9 965.1,893.8 965.5,893.7C965.9,893.6 966.3,893.5 966.7,893.4C967,893.3 967.4,893.3 967.8,893.2C968.2,893.1 968.5,893.1 968.9,893.1C969.3,893.1 969.7,893 970.1,893L972.5,893C972.9,893 973.2,893 973.5,893.1C973.8,893.1 974.2,893.2 974.6,893.3C975.4,893.4 976.2,893.6 977,893.8C977.3,893.9 977.6,894 977.9,894C978.3,894.1 978.7,894.3 979.1,894.4C979.4,894.5 979.7,894.6 980,894.7C980.4,894.9 980.8,895 981.1,895.2C981.4,895.4 981.8,895.5 982.1,895.7C982.4,895.9 982.8,896.1 983.1,896.3C983.4,896.5 983.8,896.7 984.1,896.9C984.7,897.3 985.4,897.8 985.9,898.3C986.1,898.5 986.3,898.6 986.5,898.8C986.8,899.1 987.1,899.3 987.4,899.6C987.5,899.7 987.7,899.8 987.7,899.9L1146,1060.8C1146.2,1061 1146.4,1061.3 1146.7,1061.5C1147,1061.8 1147.2,1062.1 1147.5,1062.4C1147.7,1062.6 1147.9,1063 1148.2,1063.3C1148.4,1063.6 1148.6,1063.9 1148.8,1064.2C1148.8,1064.2 1148.8,1064.3 1148.9,1064.3C1149.1,1064.6 1149.3,1064.9 1149.5,1065.3C1149.7,1065.6 1149.9,1066 1150.1,1066.3C1150.3,1066.6 1150.5,1067 1150.6,1067.4C1150.8,1067.7 1150.9,1068.1 1151,1068.4C1151.1,1068.7 1151.3,1069.1 1151.4,1069.5C1151.5,1069.8 1151.7,1070.2 1151.8,1070.6C1151.9,1070.9 1152,1071.3 1152.1,1071.6C1152.2,1072 1152.3,1072.4 1152.4,1072.8C1152.5,1073.3 1152.6,1073.7 1152.6,1074C1152.6,1074.3 1152.7,1074.7 1152.7,1075C1152.8,1075.6 1152.8,1076.2 1152.8,1076.8L1152.8,1077.8C1152.8,1078.4 1152.8,1079 1152.7,1079.6C1152.7,1080 1152.6,1080.3 1152.6,1080.7C1152.5,1081.1 1152.5,1081.5 1152.4,1081.8C1152.3,1082.2 1152.2,1082.6 1152.1,1083L1152.1,1083.1C1152,1083.4 1151.9,1083.8 1151.8,1084.1C1151.7,1084.5 1151.6,1084.8 1151.4,1085.2C1151.3,1085.5 1151.2,1085.9 1151,1086.2C1150.8,1086.6 1150.7,1087 1150.5,1087.3C1150.4,1087.6 1150.2,1088 1150,1088.3C1149.8,1088.6 1149.7,1088.9 1149.5,1089.2C1149.3,1089.6 1149.1,1089.9 1148.9,1090.2C1148.7,1090.5 1148.5,1090.8 1148.3,1091.1C1148.1,1091.4 1147.8,1091.8 1147.6,1092.1C1147.4,1092.4 1147.1,1092.7 1146.8,1093C1146.6,1093.2 1146.4,1093.4 1146.2,1093.7L987.8,1254.6C987.6,1254.8 987.3,1255.1 987.1,1255.3C986.8,1255.6 986.5,1255.9 986.2,1256.1C986,1256.3 985.7,1256.5 985.5,1256.7C985.1,1257 984.8,1257.2 984.4,1257.5C984.2,1257.7 983.9,1257.8 983.6,1258C983.2,1258.3 982.8,1258.5 982.4,1258.7C982.1,1258.9 981.9,1259 981.6,1259.1C981.1,1259.3 980.7,1259.5 980.3,1259.7C980,1259.8 979.8,1259.9 979.5,1260C979.1,1260.2 978.6,1260.3 978.1,1260.5C977.8,1260.6 977.5,1260.7 977.3,1260.7C976.8,1260.8 976.4,1260.9 976,1261C975.6,1261.1 975.3,1261.1 975,1261.2C974.6,1261.3 974.2,1261.3 973.8,1261.4C973.4,1261.4 973,1261.5 972.7,1261.5C972.3,1261.5 972,1261.5 971.7,1261.6L971.3,1261.6C970.9,1261.4 970.8,1261.4 970.8,1261.4Z" style="fill:rgb(94,152,203);fill-rule:nonzero;"/>
        <path d="M1136.6,1082C1136.7,1081.9 1136.8,1081.8 1136.9,1081.6C1137,1081.5 1137.1,1081.3 1137.1,1081.2C1137.2,1081.1 1137.2,1081 1137.3,1080.8C1137.4,1080.7 1137.4,1080.5 1137.5,1080.4C1137.6,1080.3 1137.6,1080.1 1137.7,1080C1137.8,1079.9 1137.8,1079.7 1137.8,1079.6C1137.9,1079.5 1137.9,1079.3 1137.9,1079.2C1137.9,1079.1 1138,1078.9 1138,1078.8C1138,1078.7 1138.1,1078.5 1138.1,1078.4C1138.1,1078.2 1138.1,1078.1 1138.2,1077.9C1138.2,1077.8 1138.2,1077.6 1138.3,1077.5L1138.3,1075.7C1138.3,1075.6 1138.3,1075.4 1138.2,1075.3C1138.2,1075.1 1138.2,1075 1138.1,1074.8C1138.1,1074.6 1138,1074.5 1138,1074.4C1138,1074.3 1137.9,1074.1 1137.9,1074C1137.9,1073.9 1137.8,1073.7 1137.8,1073.6C1137.8,1073.5 1137.7,1073.3 1137.7,1073.2C1137.6,1073.1 1137.6,1072.9 1137.5,1072.8C1137.4,1072.7 1137.4,1072.5 1137.3,1072.4C1137.2,1072.3 1137.2,1072.2 1137.1,1072C1137,1071.9 1136.9,1071.7 1136.9,1071.6C1136.8,1071.5 1136.7,1071.4 1136.6,1071.2C1136.5,1071.1 1136.4,1071 1136.3,1070.9C1136.2,1070.8 1136.1,1070.6 1135.9,1070.5C1135.8,1070.4 1135.8,1070.3 1135.7,1070.3L977.4,909.5C977.2,909.3 977.1,909.2 976.9,909C976.8,909 976.8,908.9 976.7,908.9C976.5,908.7 976.2,908.5 976,908.4C975.9,908.3 975.7,908.2 975.6,908.2C975.5,908.1 975.4,908 975.2,908C975.1,907.9 974.9,907.9 974.8,907.8C974.7,907.7 974.5,907.7 974.4,907.6C974.3,907.6 974.2,907.5 974.1,907.5C973.9,907.4 973.8,907.4 973.6,907.3C973.5,907.3 973.4,907.3 973.4,907.2C973.1,907.1 972.7,907 972.4,907C972.2,907 972.1,906.9 971.9,906.9L970.2,906.9C970.1,906.9 969.9,906.9 969.8,907C969.7,907 969.5,907 969.4,907.1C969.2,907.1 969.1,907.2 969,907.2C968.9,907.2 968.7,907.3 968.6,907.3C968.5,907.3 968.3,907.4 968.2,907.4C968.1,907.4 967.9,907.5 967.8,907.5C967.7,907.6 967.5,907.6 967.4,907.7C967.3,907.8 967.1,907.8 967,907.9C966.9,908 966.7,908 966.6,908.1C966.5,908.2 966.3,908.2 966.2,908.3C966.1,908.4 966,908.5 965.8,908.6C965.7,908.7 965.6,908.8 965.5,908.9C965.4,909 965.2,909.1 965.1,909.2C965,909.3 964.9,909.3 964.9,909.4L804,1066.5L803.3,1067.2C803.2,1067.3 803.1,1067.5 803,1067.6C802.9,1067.7 802.8,1067.8 802.8,1067.9C802.7,1068 802.6,1068.2 802.5,1068.4C802.4,1068.5 802.4,1068.6 802.3,1068.7C802.2,1068.9 802.1,1069 802,1069.2C802,1069.3 801.9,1069.4 801.9,1069.5C801.8,1069.7 801.8,1069.9 801.7,1070.1C801.7,1070.2 801.6,1070.3 801.6,1070.4C801.5,1070.6 801.5,1070.8 801.5,1071C801.5,1071.1 801.4,1071.2 801.4,1071.3C801.4,1071.5 801.3,1071.6 801.3,1071.8C801.3,1071.9 801.3,1072.1 801.2,1072.2L801.2,1073.9C801.2,1074.1 801.2,1074.2 801.3,1074.4C801.3,1074.5 801.3,1074.7 801.4,1074.8C801.4,1075 801.5,1075.1 801.5,1075.3C801.5,1075.4 801.6,1075.5 801.6,1075.6C801.7,1075.8 801.7,1076 801.8,1076.1C801.8,1076.2 801.9,1076.3 801.9,1076.4C802,1076.6 802,1076.7 802.1,1076.9C802.1,1077 802.2,1077.1 802.2,1077.2C802.3,1077.4 802.4,1077.5 802.5,1077.6C802.6,1077.7 802.6,1077.8 802.7,1077.9C802.8,1078 802.9,1078.2 803,1078.3C803.1,1078.4 803.2,1078.5 803.2,1078.6C803.3,1078.7 803.4,1078.8 803.5,1078.9C803.6,1079 803.6,1079.1 803.7,1079.1L964.6,1243.8L964.7,1243.9C964.8,1244 964.9,1244.1 965.1,1244.2C965.2,1244.3 965.3,1244.4 965.4,1244.5C965.5,1244.6 965.7,1244.7 965.8,1244.8C965.9,1244.9 966,1244.9 966.1,1245C966.3,1245.1 966.5,1245.2 966.7,1245.4C966.8,1245.4 966.8,1245.5 966.8,1245.5C968,1246.1 969.3,1246.5 970.7,1246.6L972,1246.6C972.2,1246.6 972.3,1246.6 972.5,1246.5C972.6,1246.5 972.8,1246.5 972.9,1246.4C973.1,1246.4 973.3,1246.3 973.5,1246.3C973.6,1246.3 973.7,1246.3 973.8,1246.2C974,1246.1 974.2,1246.1 974.4,1246C974.5,1246 974.6,1245.9 974.7,1245.9C974.9,1245.8 975.1,1245.7 975.3,1245.6C975.4,1245.6 975.5,1245.5 975.5,1245.5C975.7,1245.4 975.8,1245.3 976,1245.2C976.1,1245.1 976.2,1245.1 976.3,1245C976.5,1244.9 976.6,1244.8 976.7,1244.7C976.8,1244.6 976.9,1244.6 977,1244.5L977.6,1243.9L1135.9,1083C1136,1082.9 1136,1082.8 1136.1,1082.8C1136.2,1082.7 1136.3,1082.5 1136.5,1082.4C1136.4,1082.2 1136.5,1082.1 1136.6,1082ZM970.1,1135.4L910.7,1071.8L970.8,1011.7L1032.3,1076.4L970.1,1135.4ZM962,995L894.4,1062.6L832.5,1063.5L962,937.1L962,995ZM894.4,1080.6L960.8,1151.8L961.7,1215.2L831.2,1081.6L894.4,1080.6ZM978.8,1152L1048.7,1085.7L1107.9,1085.7L979.7,1215.9L978.8,1152ZM1049,1067.7L980,995.2L980,937.8L1107.8,1067.7L1049,1067.7Z" style="fill-rule:nonzero;"/>
    </g>
    <g>
        <path d="M1402.7,691.1C1401.8,691.1 1400.9,691 1400,690.9C1399.7,690.9 1399.4,690.8 1399.1,690.8C1398.5,690.7 1397.9,690.6 1397.3,690.4C1397,690.3 1396.7,690.3 1396.4,690.2C1395.9,690.1 1395.3,689.9 1394.7,689.6C1394.5,689.5 1394.2,689.4 1394,689.3L1393.9,689.3C1393.1,689 1392.3,688.6 1391.5,688.2C1391.3,688.1 1391,687.9 1390.8,687.8C1390.2,687.5 1389.7,687.1 1389.2,686.8C1389,686.6 1388.8,686.5 1388.5,686.3C1388,685.9 1387.5,685.5 1387,685.1C1386.9,685 1386.7,684.9 1386.6,684.7C1386.4,684.5 1386.2,684.3 1386,684.1L1303.3,599.3C1303.2,599.2 1303.1,599.1 1303.1,599C1302.6,598.4 1302.1,597.8 1301.6,597.2C1301.4,597 1301.3,596.8 1301.1,596.6C1300.7,596.1 1300.3,595.5 1300,594.9C1299.9,594.7 1299.7,594.4 1299.6,594.1C1299.3,593.5 1298.9,592.8 1298.6,592.1C1298.5,592 1298.4,591.7 1298.4,591.7C1298.1,590.9 1297.8,590.1 1297.5,589.2C1297.4,589 1297.4,588.7 1297.3,588.4C1297.1,587.8 1297,587.1 1296.9,586.5C1296.9,586.2 1296.8,585.9 1296.8,585.7C1296.7,584.8 1296.6,583.9 1296.6,583L1296.6,316.3C1296.6,315.4 1296.7,314.5 1296.8,313.6C1296.8,313.3 1296.9,313 1296.9,312.7C1297,312.1 1297.1,311.5 1297.3,310.9C1297.4,310.6 1297.4,310.3 1297.5,310.1C1297.7,309.5 1297.9,308.9 1298.1,308.3C1298.2,308 1298.3,307.8 1298.4,307.5C1298.8,306.6 1299.1,305.8 1299.6,305.1C1299.7,304.9 1299.9,304.6 1300,304.4C1300.3,303.8 1300.7,303.3 1301,302.8C1301.2,302.6 1301.3,302.3 1301.5,302.1C1301.9,301.6 1302.3,301.1 1302.7,300.7C1302.8,300.6 1302.9,300.4 1303.1,300.3C1303.3,300.1 1303.5,299.9 1303.7,299.6C1303.7,299.6 1386.4,219 1386.4,218.9C1386.5,218.8 1386.5,218.8 1386.6,218.7C1386.7,218.6 1386.8,218.5 1386.9,218.5C1387.4,218 1387.9,217.6 1388.4,217.2C1388.6,217.1 1388.8,216.9 1389,216.7C1389.5,216.3 1390.1,216 1390.6,215.6C1390.8,215.5 1391.1,215.3 1391.3,215.2C1392.1,214.8 1392.9,214.4 1393.7,214.1C1393.8,214 1394,214 1394.1,213.9C1394.8,213.6 1395.5,213.4 1396.2,213.2L1396.3,213.2C1396.5,213.1 1396.8,213.1 1397,213C1397.7,212.8 1398.3,212.7 1399,212.6C1399.3,212.6 1399.5,212.5 1399.7,212.5C1400.7,212.4 1401.6,212.3 1402.5,212.3L1544.6,212.3C1551,212.3 1557.1,214.9 1561.5,219.5L1638.5,300.1C1639,300.7 1639.6,301.3 1640.1,302C1640.3,302.2 1640.4,302.4 1640.6,302.6C1641,303.1 1641.4,303.7 1641.7,304.3C1641.8,304.4 1641.9,304.7 1642.1,304.9C1642.4,305.5 1642.8,306.1 1643,306.8C1643.1,307 1643.2,307.1 1643.2,307.3C1643.2,307.3 1643.2,307.4 1643.3,307.4C1643.6,308.2 1643.9,309 1644.2,309.9C1644.3,310.2 1644.3,310.5 1644.4,310.7C1644.5,311.3 1644.7,312 1644.8,312.6L1644.8,312.7C1644.8,312.9 1644.9,313.2 1644.9,313.4C1645,314.3 1645.1,315.2 1645.1,316.1L1645.1,574.5C1645.1,575.3 1645.1,576.1 1645,577C1645,577.2 1645,577.4 1644.9,577.7C1644.8,578.4 1644.7,579 1644.6,579.6C1644.5,579.9 1644.5,580.1 1644.4,580.3C1644.2,581 1644,581.8 1643.7,582.6C1643.6,582.9 1643.5,583.1 1643.4,583.3C1643.2,583.9 1642.9,584.4 1642.6,585C1642.5,585.2 1642.4,585.4 1642.3,585.6C1642,586.2 1641.7,586.7 1641.3,587.3C1641.2,587.5 1641.1,587.7 1640.9,587.9C1640.5,588.4 1640.1,589 1639.7,589.5L1562.7,682.5C1562.1,683.2 1561.5,683.9 1560.8,684.5C1560.5,684.7 1560.3,685 1560,685.2C1559.7,685.5 1559.2,685.9 1558.6,686.3C1558.3,686.5 1558,686.7 1557.7,686.9C1557.3,687.2 1556.8,687.5 1556.3,687.8C1556,688 1555.6,688.2 1555.3,688.3C1554.8,688.5 1554.3,688.8 1553.8,689C1553.5,689.1 1553.2,689.3 1552.8,689.4C1552.2,689.6 1551.7,689.8 1551.2,689.9C1550.8,690 1550.5,690.1 1550.2,690.2C1549.6,690.3 1549.1,690.4 1548.5,690.5C1548.2,690.6 1547.8,690.6 1547.5,690.7C1546.5,690.8 1545.6,690.9 1544.7,690.9L1402.7,690.9L1402.7,691.1Z" style="fill:rgb(246,169,203);fill-rule:nonzero;"/>
        <path d="M1630.8,314.5C1630.8,314.2 1630.7,314 1630.6,313.7C1630.6,313.6 1630.6,313.5 1630.5,313.4C1630.4,313.1 1630.3,312.7 1630.2,312.4C1630.2,312.4 1630.2,312.3 1630.1,312.3C1630,312 1629.9,311.8 1629.7,311.5C1629.7,311.4 1629.6,311.3 1629.5,311.2C1629.4,311 1629.2,310.7 1629,310.5C1629,310.4 1628.9,310.4 1628.9,310.3C1628.7,310 1628.5,309.8 1628.3,309.6L1551.3,229C1549.6,227.2 1547.3,226.2 1544.8,226.2L1402.7,226.2C1402.3,226.2 1402,226.2 1401.7,226.3L1401.4,226.3C1401.1,226.3 1400.9,226.4 1400.7,226.4C1400.6,226.4 1400.5,226.4 1400.4,226.5C1400.1,226.6 1399.8,226.7 1399.5,226.8C1399.2,226.9 1398.9,227.1 1398.6,227.2C1398.5,227.2 1398.4,227.3 1398.3,227.4C1398.1,227.5 1397.9,227.7 1397.7,227.8C1397.6,227.9 1397.5,227.9 1397.4,228C1397.2,228.2 1396.9,228.4 1396.7,228.6L1396.6,228.7L1313.9,309.3L1313.8,309.4C1313.7,309.5 1313.6,309.6 1313.6,309.7C1313.4,309.9 1313.3,310.1 1313.1,310.2C1313,310.3 1313,310.4 1312.9,310.5C1312.7,310.7 1312.6,310.9 1312.5,311.2C1312.5,311.3 1312.4,311.3 1312.4,311.4C1312.2,311.7 1312.1,312 1312,312.3C1312,312.4 1311.9,312.5 1311.9,312.5C1311.8,312.7 1311.7,313 1311.7,313.2C1311.7,313.3 1311.6,313.4 1311.6,313.5C1311.5,313.7 1311.5,314 1311.5,314.2L1311.5,314.5C1311.5,314.8 1311.4,315.2 1311.4,315.6L1311.4,582.2C1311.4,582.6 1311.4,582.9 1311.5,583.3L1311.5,583.6C1311.5,583.9 1311.6,584.1 1311.7,584.4C1311.7,584.5 1311.7,584.6 1311.8,584.7C1311.9,585 1312,585.4 1312.1,585.7L1312.1,585.8C1312.2,586.1 1312.4,586.4 1312.5,586.7C1312.6,586.8 1312.6,586.9 1312.7,587C1312.8,587.2 1313,587.4 1313.1,587.6C1313.2,587.7 1313.2,587.8 1313.3,587.8C1313.5,588.1 1313.7,588.3 1314,588.6L1396.7,673.3C1396.7,673.4 1396.8,673.4 1396.9,673.4C1397,673.5 1397.1,673.6 1397.2,673.6C1397.4,673.8 1397.6,673.9 1397.7,674.1C1397.8,674.2 1397.9,674.2 1398,674.3C1398.2,674.5 1398.5,674.6 1398.7,674.8C1398.8,674.8 1398.8,674.9 1398.9,674.9C1399.2,675.1 1399.5,675.2 1399.8,675.3C1399.9,675.3 1400,675.4 1400.1,675.4C1400.3,675.5 1400.6,675.6 1400.8,675.6C1400.9,675.6 1401,675.7 1401.1,675.7C1401.3,675.8 1401.6,675.8 1401.8,675.8L1402.1,675.8C1402.4,675.8 1402.8,675.9 1403.1,675.9L1545.2,675.9C1545.6,675.9 1545.9,675.9 1546.3,675.8C1546.4,675.8 1546.5,675.8 1546.7,675.7C1546.9,675.7 1547.2,675.6 1547.4,675.6C1547.5,675.6 1547.7,675.5 1547.8,675.5C1548,675.4 1548.2,675.4 1548.4,675.3C1548.5,675.2 1548.7,675.2 1548.8,675.1C1549,675 1549.2,674.9 1549.4,674.8C1549.5,674.7 1549.7,674.7 1549.8,674.6C1550,674.5 1550.2,674.4 1550.4,674.2C1550.5,674.1 1550.6,674.1 1550.7,674C1550.9,673.9 1551.1,673.7 1551.3,673.5C1551.4,673.4 1551.5,673.4 1551.6,673.3C1551.9,673.1 1552.1,672.8 1552.3,672.5L1629.3,579.5C1629.5,579.3 1629.6,579.1 1629.8,578.8L1629.9,578.7C1630,578.5 1630.2,578.2 1630.3,578C1630.3,577.9 1630.4,577.8 1630.4,577.7C1630.5,577.5 1630.6,577.2 1630.7,577C1630.7,576.9 1630.8,576.9 1630.8,576.8C1630.9,576.5 1631,576.2 1631.1,575.9C1631.1,575.8 1631.1,575.7 1631.2,575.7C1631.3,575.5 1631.3,575.2 1631.3,575L1631.3,574.7C1631.3,574.4 1631.4,574.1 1631.4,573.7L1631.4,315.9C1631.4,315.5 1631.4,315.2 1631.3,314.8C1630.9,314.7 1630.8,314.6 1630.8,314.5ZM1546.9,650.7L1515,584.4L1543.7,555.7L1606.9,578.4L1546.9,650.7ZM1447.5,573.5L1405.8,537.2L1411.5,412.4L1413.8,362.9L1448.2,324.9L1500.3,324.9L1515.1,340.4L1535.9,362.2L1532.4,541.6L1500.4,573.6L1447.5,573.6L1447.5,573.5ZM1334.9,584.8L1395.4,552.1L1433,584.8L1400.3,651.9L1334.9,584.8ZM1400.4,250.2L1433.3,314.4L1402.8,348.1L1335.3,313.6L1400.4,250.2ZM1395.7,364.7L1387.9,535.7L1329.2,567.4L1329.2,330.6L1395.7,364.7ZM1550.4,539L1553.8,363.9L1612.9,331.1L1612.9,561.4L1550.4,539ZM1607.4,313.7L1546.7,347.4L1516.9,316.2L1514.9,314.1L1545.5,248.9L1607.4,313.7ZM1527.8,244.3L1498.4,306.9L1449.7,306.9L1417.6,244.3L1527.8,244.3ZM1417.2,658.3L1449.8,591.6L1498.5,591.6L1530.6,658.3L1417.2,658.3Z" style="fill-rule:nonzero;"/>
    </g>
    <g transform="matrix(0.707107,0.707107,-0.707107,0.707107,1164.47,-466.989)">
        <path d="M1281,1098.3C1280.2,1098.3 1279.5,1098.3 1278.7,1098.2C1273.2,1097.6 1268,1095.1 1264.2,1091.2L1042,861.4C1041.3,860.7 1040.6,859.9 1040,859C1039.7,858.5 1039.4,858.1 1039.2,857.8C1039,857.5 1038.7,857 1038.3,856.4C1038,855.9 1037.8,855.4 1037.7,855.1C1037.6,854.8 1037.3,854.3 1037,853.6C1036.8,853 1036.6,852.5 1036.5,852.3C1036.4,852 1036.2,851.4 1036,850.7C1035.9,850.1 1035.8,849.6 1035.7,849.3C1035.6,849 1035.5,848.4 1035.5,847.8C1035.4,847.3 1035.4,846.8 1035.4,846.3C1035.4,845.9 1035.3,845.4 1035.4,844.7C1035.4,844.2 1035.4,843.7 1035.5,843.3C1035.5,843 1035.6,842.4 1035.7,841.7C1035.8,841.3 1035.9,840.8 1036,840.3C1036.1,840 1036.2,839.4 1036.4,838.8L1075.2,707.5L1075.8,705.7C1076,705.3 1076.2,704.8 1076.4,704.3C1076.6,703.9 1076.8,703.5 1077,703.2C1077.3,702.7 1077.6,702.2 1077.8,701.8C1078,701.5 1078.2,701.2 1078.4,700.8C1078.8,700.3 1079.1,699.9 1079.4,699.5C1079.7,699.2 1079.9,698.9 1080.2,698.6C1080.6,698.2 1081,697.8 1081.4,697.4C1081.7,697.1 1082,696.8 1082.3,696.6C1082.7,696.2 1083.2,695.9 1083.6,695.6C1083.9,695.4 1084.2,695.1 1084.5,694.9C1085.1,694.5 1085.6,694.2 1086,694C1086.4,693.8 1086.7,693.6 1087.1,693.4C1087.9,693 1088.8,692.6 1089.7,692.3L1222.5,644.6C1223.5,644.2 1224.5,643.9 1225.6,643.7C1226,643.6 1226.4,643.5 1226.9,643.5C1227.3,643.4 1228,643.3 1228.8,643.3L1230.2,643.3L1230.1,643.3L1232,643.3C1232.4,643.3 1232.9,643.4 1233.3,643.4C1233.9,643.5 1234.5,643.6 1235.1,643.7C1235.5,643.8 1236,643.9 1236.4,644L1236.5,644C1237.1,644.1 1237.6,644.3 1238.1,644.5C1238.5,644.7 1239,644.8 1239.5,645C1240,645.2 1240.5,645.4 1241,645.7C1241.4,645.9 1241.9,646.2 1242.3,646.4C1242.8,646.7 1243.3,647 1243.8,647.4C1244.1,647.6 1244.4,647.8 1244.7,648C1245,648.2 1245.3,648.4 1245.6,648.7C1245.9,648.9 1246.1,649.1 1246.3,649.3C1246.5,649.5 1246.7,649.7 1246.9,649.9L1478.5,878.1C1478.6,878.2 1478.7,878.3 1478.8,878.4C1479.4,879 1480,879.7 1480.5,880.4C1480.6,880.6 1480.8,880.7 1480.9,880.9C1481.3,881.5 1481.8,882.1 1482.2,882.8C1482.3,883 1482.4,883.2 1482.6,883.4C1483,884.1 1483.3,884.8 1483.6,885.5C1483.7,885.7 1483.7,885.8 1483.8,886C1484.1,886.8 1484.4,887.6 1484.6,888.3C1484.7,888.6 1484.8,888.9 1484.8,889.2C1484.9,889.6 1485,889.9 1485,890.3C1485.1,890.9 1485.2,891.4 1485.3,891.9C1485.4,892.3 1485.4,892.8 1485.4,893.2C1485.4,893.5 1485.5,894.1 1485.5,894.7L1485.5,895.6C1485.4,897.4 1485.2,899.2 1484.7,900.9C1484.7,901 1484.7,901.1 1484.6,901.1C1484.6,901.2 1484.5,901.4 1484.5,901.5L1440,1046C1439.9,1046.3 1439.8,1046.5 1439.7,1046.8C1439.5,1047.3 1439.3,1047.8 1439.1,1048.3C1439,1048.5 1438.9,1048.7 1438.8,1048.9C1438.4,1049.8 1438,1050.6 1437.5,1051.4C1437.4,1051.5 1437.4,1051.6 1437.3,1051.7C1436.9,1052.3 1436.4,1053 1435.9,1053.6C1435.7,1053.8 1435.6,1054 1435.4,1054.2C1435,1054.7 1434.6,1055.1 1434.1,1055.6C1433.9,1055.8 1433.8,1055.9 1433.6,1056.1C1433.4,1056.3 1433.2,1056.5 1433,1056.6L1432.9,1056.7C1432.6,1057 1432.3,1057.2 1432,1057.5C1431.8,1057.7 1431.6,1057.8 1431.4,1058C1430.6,1058.6 1429.9,1059.1 1429.1,1059.5C1429,1059.6 1428.7,1059.7 1428.7,1059.7C1428,1060.1 1427.3,1060.4 1426.6,1060.7C1426.4,1060.8 1426.2,1060.9 1426,1060.9C1425.4,1061.1 1424.9,1061.3 1424.3,1061.5C1424.1,1061.6 1423.8,1061.6 1423.6,1061.7C1423.6,1061.7 1286.5,1097.6 1286.4,1097.6C1285.8,1097.8 1285.2,1097.8 1284.9,1097.9C1284.5,1098 1284.1,1098 1283.7,1098.1C1282.9,1098.3 1281.9,1098.3 1281,1098.3Z" style="fill:rgb(141,198,63);fill-rule:nonzero;"/>
        <path d="M1470.9,894.2L1470.9,892.9C1470.9,892.7 1470.8,892.5 1470.8,892.3C1470.8,892.1 1470.7,891.9 1470.7,891.7L1470.7,891.6C1470.6,891.3 1470.5,891 1470.4,890.7L1470.4,890.6C1470.3,890.3 1470.1,890 1470,889.7C1470,889.6 1469.9,889.5 1469.9,889.5C1469.7,889.2 1469.6,889 1469.4,888.7L1469.3,888.6C1469.1,888.3 1468.8,888 1468.6,887.8L1237.1,659.7C1237,659.6 1236.9,659.6 1236.9,659.5C1236.8,659.4 1236.7,659.3 1236.6,659.2C1236.5,659.1 1236.4,659.1 1236.3,659C1236.2,658.9 1236,658.8 1235.8,658.7C1235.6,658.6 1235.4,658.5 1235.2,658.3C1235,658.2 1234.9,658.1 1234.7,658C1234.5,657.9 1234.3,657.8 1234.1,657.7C1233.9,657.6 1233.8,657.6 1233.6,657.5C1233.4,657.4 1233.2,657.4 1233,657.3C1232.8,657.3 1232.6,657.2 1232.5,657.2C1232.3,657.2 1232.1,657.1 1231.8,657.1C1231.6,657.1 1231.4,657.1 1231.3,657L1230.1,657C1229.8,657 1229.6,657.1 1229.3,657.1C1229.2,657.1 1229,657.1 1228.9,657.2C1228.5,657.3 1228.1,657.4 1227.7,657.5L1094.9,705.2C1094.5,705.3 1094.2,705.5 1093.9,705.6C1093.8,705.7 1093.7,705.7 1093.6,705.8C1093.4,705.9 1093.2,706 1093,706.2C1092.9,706.3 1092.8,706.4 1092.6,706.5C1092.4,706.6 1092.2,706.8 1092.1,706.9C1092,707 1091.9,707.1 1091.8,707.2C1091.6,707.3 1091.5,707.5 1091.4,707.7C1091.3,707.8 1091.2,707.9 1091.1,708.1C1091,708.3 1090.8,708.4 1090.7,708.6C1090.6,708.7 1090.5,708.9 1090.4,709C1090.3,709.2 1090.2,709.3 1090.1,709.5C1090,709.6 1089.9,709.8 1089.9,709.9C1089.8,710.1 1089.7,710.3 1089.7,710.5C1089.6,710.7 1089.6,710.8 1089.5,711C1089.5,711.1 1089.4,711.1 1089.4,711.2L1050.7,842.3L1050.7,842.5C1050.6,842.7 1050.6,842.9 1050.6,843.1C1050.6,843.3 1050.5,843.5 1050.5,843.6C1050.5,843.8 1050.5,844 1050.4,844.2L1050.4,845.9C1050.4,846.1 1050.5,846.3 1050.5,846.5C1050.5,846.7 1050.6,846.8 1050.6,847C1050.7,847.2 1050.7,847.4 1050.8,847.6C1050.9,847.8 1050.9,847.9 1051,848.1C1051.1,848.3 1051.2,848.5 1051.3,848.7C1051.4,848.9 1051.4,849 1051.5,849.2C1051.6,849.4 1051.7,849.6 1051.9,849.8C1052,849.9 1052.1,850.1 1052.2,850.2C1052.4,850.5 1052.7,850.8 1053,851.1L1275.2,1080.9C1276.7,1082.5 1278.7,1083.4 1280.8,1083.6L1281.7,1083.6C1282.1,1083.6 1282.4,1083.6 1282.8,1083.5C1282.9,1083.5 1283.1,1083.5 1283.2,1083.4C1283.4,1083.4 1283.6,1083.3 1283.8,1083.3L1284,1083.3L1420.6,1047.5L1420.7,1047.5C1421,1047.4 1421.3,1047.3 1421.5,1047.2C1421.6,1047.2 1421.7,1047.1 1421.7,1047.1C1422,1047 1422.3,1046.8 1422.6,1046.7C1422.9,1046.5 1423.2,1046.3 1423.5,1046.1C1423.6,1046 1423.7,1046 1423.7,1045.9C1423.8,1045.8 1424,1045.7 1424.1,1045.6L1425.1,1044.6C1425.2,1044.5 1425.2,1044.4 1425.3,1044.4C1425.5,1044.1 1425.7,1043.9 1425.9,1043.6C1426.1,1043.3 1426.3,1043 1426.4,1042.7C1426.4,1042.6 1426.5,1042.6 1426.5,1042.5C1426.6,1042.2 1426.7,1042 1426.8,1041.7C1426.8,1041.6 1426.8,1041.6 1426.9,1041.5L1471.2,896.8L1471.2,896.7C1471.4,896 1471.5,895.2 1471.6,894.4C1470.9,894.3 1470.9,894.2 1470.9,894.2ZM1413.8,1020.7L1377.8,979.8L1394.8,922.4L1448.5,907.2L1413.8,1020.7ZM1076.1,849.5L1126.7,836.5L1293.5,1002.2L1276.9,1057.2L1076.1,849.5ZM1102.1,730.3L1138,764.6L1122.2,819.1L1072,832L1102.1,730.3ZM1131.4,711L1218.8,679.6L1208.4,737.4L1150.8,751.8L1114.4,717L1131.4,711ZM1444.6,889.6L1390.2,905L1225.9,741.8L1236.2,684.4L1444.6,889.6ZM1377.5,917.6L1360.6,974.6L1306.3,989.5L1139.6,823.9L1155.4,769.3L1213.6,754.8L1377.5,917.6ZM1310.8,1007L1364.7,992.2L1401.3,1033.8L1294.3,1061.8L1310.8,1007Z" style="fill-rule:nonzero;"/>
    </g>
</svg>
