<?xml version="1.0" encoding="UTF-8" standalone="no"?>
<!DOCTYPE svg PUBLIC "-//W3C//DTD SVG 1.1//EN" "http://www.w3.org/Graphics/SVG/1.1/DTD/svg11.dtd">
<svg width="100%" height="100%" viewBox="0 0 500 488" version="1.1" xmlns="http://www.w3.org/2000/svg" xmlns:xlink="http://www.w3.org/1999/xlink" xml:space="preserve" xmlns:serif="http://www.serif.com/" style="fill-rule:evenodd;clip-rule:evenodd;stroke-linejoin:round;stroke-miterlimit:2;">
    <g transform="matrix(1,0,0,1,-278,-130.2)">
        <g>
            <path d="M527,617.8L526.1,617.8C525.4,617.8 524.8,617.7 524.4,617.6C523.9,617.6 523.4,617.5 522.9,617.4C522,617.2 521.3,617.1 520.9,616.9C520.5,616.8 520,616.7 519.4,616.5C518.5,616.2 517.7,615.9 517.2,615.6C516.9,615.5 516.5,615.3 516.1,615.1C515.2,614.6 514.2,614 513.3,613.4C513.2,613.3 513,613.2 512.9,613.1L380.4,513.4C380.3,513.3 380.2,513.3 380.1,513.2C379.8,512.9 379.4,512.7 379.1,512.4C378.9,512.3 378.8,512.1 378.6,512C378.1,511.5 377.6,511 377.1,510.5C376.9,510.3 376.7,510.1 376.6,509.9C376.3,509.6 376,509.2 375.7,508.8C375.5,508.6 375.3,508.3 375.2,508.1C375,507.8 374.8,507.6 374.7,507.3C374.6,507.2 374.4,506.9 374.4,506.8L302.5,386.2C302.4,386 302.2,385.8 302.1,385.5C302,385.2 301.8,385 301.7,384.7C301.6,384.4 301.4,384.1 301.3,383.8C301.2,383.5 301.1,383.2 300.9,383C300.8,382.7 300.7,382.4 300.6,382.2L279.2,323.6C279.1,323.4 279.1,323.2 279,323C278.9,322.8 278.9,322.6 278.8,322.3L278.8,322.1C278.8,321.9 278.7,321.8 278.7,321.6C278.6,321.3 278.5,321 278.5,320.6C278.4,320.3 278.4,320 278.3,319.7C278.2,319.2 278.1,318.7 278.1,318.2C278,317.7 278,317.1 278,316.5L278,227.3C278,226.7 278.1,226 278.2,225.4C278.2,225.1 278.3,224.8 278.3,224.6C278.4,224 278.5,223.3 278.7,222.7C278.8,222.5 278.8,222.2 278.9,222C279.1,221.3 279.4,220.5 279.6,219.8C279.7,219.6 279.7,219.5 279.8,219.3C279.9,219 280,218.7 280.2,218.4C280.4,217.9 280.7,217.4 281,216.9C281.1,216.7 281.2,216.5 281.3,216.3C281.8,215.5 282.3,214.8 282.8,214.1C282.9,214 283,213.8 283.1,213.7C283.5,213.2 283.8,212.8 284.2,212.5L343.5,148.1C343.6,148 343.7,147.9 343.8,147.7L345.1,146.4C345.3,146.2 345.6,145.9 345.9,145.7C346.2,145.5 346.5,145.2 346.8,145C347.1,144.8 347.4,144.6 347.7,144.4C348,144.2 348.3,144 348.7,143.8C348.9,143.7 349.2,143.5 349.5,143.3C349.8,143.1 350.1,143 350.5,142.8C350.8,142.7 351,142.6 351.3,142.4C351.5,142.3 351.7,142.2 351.9,142.1C352.2,142 352.5,141.9 352.9,141.7C353.1,141.6 353.4,141.5 353.7,141.4C354.2,141.3 354.6,141.1 355,141C356.1,140.7 357.1,140.6 358.1,140.4L448.8,130.3C449.4,130.2 449.9,130.2 450.3,130.2L452.1,130.2C452.6,130.2 453.1,130.3 453.6,130.3L453.7,130.3C454.1,130.3 454.8,130.4 455.6,130.6C456.1,130.7 456.6,130.8 457.1,130.9C457.7,131.1 458.3,131.2 459,131.5C459.4,131.7 459.9,131.8 460.3,132C460.7,132.1 461.2,132.3 461.7,132.6L462.9,133.2L527.3,169.7L595.4,133C596.3,132.5 597.3,132.1 598.3,131.7C598.4,131.6 598.6,131.6 598.7,131.5C599.7,131.2 600.7,130.9 601.7,130.7C601.9,130.7 602.1,130.6 602.2,130.6C603.3,130.4 604.2,130.3 605.2,130.2L606.5,130.2C607.1,130.2 607.7,130.2 608.3,130.3C608.4,130.3 608.9,130.4 608.9,130.4L697.2,139.2C697.5,139.2 697.7,139.3 698,139.3C698.3,139.3 698.5,139.4 698.8,139.4C699.2,139.5 699.6,139.5 700,139.6L700.1,139.6C700.4,139.7 700.6,139.7 700.9,139.8C701.3,139.9 701.7,140 702.1,140.2C702.4,140.3 702.6,140.4 702.9,140.5C703,140.5 703.1,140.6 703.3,140.6C703.9,140.8 704.5,141.1 705.1,141.4C705.3,141.5 705.4,141.6 705.6,141.7C706.1,141.9 706.5,142.2 707,142.5C707.3,142.7 707.6,142.9 707.9,143C708.3,143.2 708.6,143.4 708.8,143.6C709.1,143.8 709.4,144.1 709.7,144.3C710,144.5 710.2,144.7 710.5,145C710.7,145.2 710.9,145.4 711.1,145.6C711.3,145.8 711.5,146 711.7,146.1L771,207C771.3,207.3 771.5,207.5 771.7,207.8C771.9,208 772,208.1 772.2,208.3C772.6,208.8 773,209.3 773.3,209.8C773.5,210 773.6,210.3 773.8,210.5C774.2,211.1 774.6,211.7 774.9,212.4C775,212.5 775.1,212.8 775.2,212.9C775.3,213.2 775.5,213.5 775.6,213.7C775.8,214.2 776,214.7 776.2,215.2C776.3,215.4 776.4,215.7 776.5,216C776.7,216.6 776.9,217.1 777,217.7C777.1,218 777.2,218.3 777.2,218.6C777.4,219.4 777.5,220.3 777.6,221.1C777.6,221.2 777.6,221.6 777.7,221.8C777.7,222.3 777.8,222.8 777.8,223.3L777.8,315.9C777.8,316.8 777.7,317.7 777.6,318.6C777.6,318.8 777.5,319.1 777.5,319.3C777.4,319.9 777.3,320.5 777.1,321.1C777,321.4 777,321.7 776.9,322L759.2,382.7C759.2,382.8 759.1,383 759.1,383.1C758.9,383.9 758.6,384.7 758.2,385.4C758.1,385.6 758,385.8 757.9,386C757.6,386.7 757.3,387.3 756.9,387.8C756.8,388 756.6,388.3 756.5,388.5L687,498.4C685.5,500.7 683.7,502.7 681.6,504.4L541.4,612.9C540.9,613.3 540.3,613.7 539.7,614.1C539.6,614.2 539.5,614.2 539.4,614.3C538.7,614.7 537.9,615.2 537.1,615.5C536.9,615.6 536.7,615.7 536.5,615.8C535.7,616.2 534.8,616.5 533.8,616.8L533.4,616.9C532.4,617.2 531.4,617.4 530.5,617.5C530.4,617.5 530.2,617.5 530,617.6C529,617.8 528.1,617.8 527,617.8C527.1,617.8 527,617.8 527,617.8Z" style="fill:rgb(203,28,237);fill-rule:nonzero;"/>
            <path d="M292.3,315L292.3,315.5C292.3,315.7 292.3,315.9 292.4,316.1C292.4,316.3 292.4,316.5 292.5,316.7C292.5,316.8 292.5,316.9 292.6,317C292.6,317.2 292.7,317.4 292.7,317.5L292.7,317.6C292.7,317.7 292.8,317.8 292.8,317.9C292.8,318 292.8,318 292.9,318.1L314.4,376.8C314.4,376.9 314.5,376.9 314.5,377C314.6,377.1 314.6,377.3 314.7,377.4C314.8,377.5 314.8,377.6 314.9,377.8C315,377.9 315,378.1 315.1,378.2C315.1,378.3 315.2,378.3 315.2,378.4L387.1,499L387.1,499.1C387.2,499.3 387.3,499.4 387.4,499.6C387.5,499.7 387.5,499.8 387.6,499.8C387.7,500 387.9,500.1 388,500.3L388.9,501.2C389.1,501.4 389.3,501.5 389.4,501.6L521.9,601.3C522.3,601.6 522.7,601.8 523.1,602C523.2,602 523.3,602.1 523.4,602.1C523.7,602.3 524,602.4 524.4,602.5C524.6,602.6 524.8,602.6 524.9,602.6C525.2,602.7 525.4,602.7 525.7,602.8C525.9,602.8 526.1,602.8 526.3,602.9C526.5,602.9 526.7,603 526.9,603L527.3,603C527.7,603 528.1,603 528.5,602.9L528.7,602.9C529.1,602.8 529.4,602.8 529.8,602.7C529.9,602.7 529.9,602.7 530,602.6C530.4,602.5 530.7,602.4 531,602.2C531,602.2 531.1,602.2 531.1,602.1C531.4,601.9 531.8,601.8 532.1,601.6C532.3,601.5 532.5,601.3 532.7,601.1L609.4,541.7L672.8,492.6C673.6,492 674.3,491.2 674.9,490.3L744.3,380.5C744.3,380.5 744.3,380.4 744.4,380.4C744.6,380.1 744.7,379.8 744.9,379.5C744.9,379.4 745,379.4 745,379.3C745.1,379 745.3,378.6 745.4,378.3L745.4,378.2L763.1,317.6L763.1,317.4C763.2,317.1 763.3,316.8 763.3,316.5L763.3,316.3C763.4,315.9 763.4,315.5 763.4,315.1L763.4,222.1C763.4,221.8 763.3,221.4 763.2,221.1C763.2,221 763.2,220.9 763.1,220.8C763,220.6 763,220.3 762.9,220.1C762.9,220 762.8,219.9 762.8,219.8C762.7,219.6 762.6,219.3 762.5,219.1C762.5,219 762.5,219 762.4,218.9L762.4,218.8C762.2,218.5 762.1,218.2 761.9,217.9C761.9,217.8 761.8,217.8 761.8,217.7C761.7,217.5 761.5,217.3 761.3,217.1C761.2,217 761.1,216.9 761.1,216.8C761,216.7 761,216.6 760.9,216.6L701.5,156L700.5,155C700.4,154.9 700.3,154.8 700.1,154.8C700,154.7 699.9,154.7 699.8,154.6C699.6,154.5 699.4,154.4 699.2,154.3C699.2,154.3 699.1,154.3 699.1,154.2C698.8,154.1 698.6,154 698.3,153.9C698.2,153.9 698.2,153.9 698.1,153.8C697.9,153.7 697.7,153.7 697.5,153.6C697.4,153.6 697.3,153.5 697.2,153.5C697,153.5 696.9,153.4 696.7,153.4C696.6,153.4 696.4,153.4 696.3,153.3L696.1,153.3L607.8,144.5L606.2,144.5C605.8,144.5 605.4,144.6 605.1,144.6L604.9,144.6C604.5,144.7 604.1,144.8 603.8,144.9C603.7,144.9 603.7,144.9 603.6,145C603.2,145.1 602.8,145.3 602.4,145.5L599.7,146.9L599.6,146.9L527.2,185.9L455.9,145.4C455.8,145.4 455.8,145.3 455.7,145.3C455.6,145.3 455.6,145.2 455.5,145.2C455.4,145.1 455.2,145.1 455.1,145C454.9,144.9 454.7,144.8 454.5,144.8C454.3,144.7 454,144.7 453.8,144.6C453.6,144.5 453.4,144.5 453.2,144.5C453,144.5 452.7,144.4 452.5,144.4C452.3,144.4 452.1,144.4 451.9,144.3L450.6,144.3L359.8,154.4C359.4,154.4 359,154.5 358.6,154.6C358.4,154.6 358.3,154.7 358.1,154.7C358,154.7 357.9,154.8 357.8,154.8C357.6,154.9 357.5,154.9 357.3,155L357.2,155C357.1,155 357.1,155.1 357,155.1C356.8,155.2 356.7,155.2 356.5,155.3C356.4,155.4 356.3,155.4 356.2,155.5C356.1,155.6 355.9,155.7 355.8,155.7C355.7,155.8 355.6,155.9 355.5,155.9C355.4,156 355.3,156.1 355.2,156.1C355.1,156.2 355,156.3 354.8,156.4L354.2,157L294.9,221.4C294.7,221.6 294.6,221.8 294.4,222L294.3,222.1C294.1,222.4 293.9,222.7 293.7,222.9C293.7,223 293.6,223.1 293.6,223.2C293.5,223.4 293.4,223.7 293.2,223.9C293.2,224 293.1,224 293.1,224.1L293.1,224.2C293,224.5 292.9,224.8 292.8,225.2L292.8,225.4C292.7,225.7 292.7,226 292.6,226.2L292.6,226.5C292.6,226.8 292.5,227 292.5,227.3L292.5,315C292.3,314.9 292.3,315 292.3,315ZM357.8,179.9L369.8,207.7L325.5,214.9L357.8,179.9ZM509.1,196.5L454.8,228L459.4,168.3L509.1,196.5ZM596.8,169.1L604.7,228.1L546.1,196.5L596.8,169.1ZM730.4,211.3L688.4,206.9L698.6,178.8L730.4,211.3ZM745.4,302.5L722.4,294.8L745.4,255.8L745.4,302.5ZM735.7,346.8L723.8,314.3L743.3,320.8L735.7,346.8ZM604.2,522.9L589,510.1L628.9,503.7L604.2,522.9ZM425.6,506.3L471.3,510.7L451.9,526.1L425.6,506.3ZM313,320.9L333.9,314.6L322.5,347L313,320.9ZM671.2,323.2L671.2,282L695.1,300.5L671.2,323.2ZM706.4,286.5L672.9,260.5L682.8,224.5L739.5,230.4L706.4,286.5ZM656.3,252.6L637.1,244L662.1,231.7L656.3,252.6ZM623.2,230.7L615.5,173.2L660.1,212.5L623.2,230.7ZM616.8,254.6L653.2,270.9L653.2,344.9L584.1,433.2L526.8,471.4L478.8,436.6L404.5,334.3C404.4,334.1 404.3,334 404.1,333.9L404.3,271.7L443.7,254.5L527,307.5C527.1,307.6 527.2,307.6 527.3,307.7C527.4,307.8 527.6,307.9 527.7,307.9C527.8,307.9 527.9,308 527.9,308C528,308.1 528.2,308.1 528.3,308.2C528.5,308.3 528.7,308.4 529,308.4C529.2,308.5 529.3,308.5 529.5,308.5C529.7,308.6 530,308.6 530.2,308.6C530.3,308.6 530.5,308.7 530.6,308.7C530.9,308.7 531.3,308.8 531.6,308.8L531.7,308.8C532.1,308.8 532.5,308.8 532.9,308.7C533,308.7 533.2,308.7 533.3,308.6C533.6,308.6 533.8,308.5 534.1,308.4C534.2,308.4 534.4,308.3 534.5,308.3C534.7,308.2 535,308.1 535.2,308C535.3,307.9 535.5,307.9 535.6,307.8C535.9,307.7 536.1,307.5 536.3,307.4C536.4,307.4 536.5,307.3 536.5,307.3L616.8,254.6ZM653.2,481.6L581.6,493L597.5,446.6L653.2,423.1L653.2,481.6ZM404,364.4L444.4,420L403.9,400.9L404,364.4ZM401.5,253.3L396,231.1L422.9,244L401.5,253.3ZM386.2,318L365.9,300.2L386.3,284.3L386.2,318ZM353.5,313.3L386.1,341.8L386,392.6L334,369L353.5,313.3ZM403.9,420.8L465.1,449.7L481,493.6L403.6,486.2L403.9,420.8ZM498.9,490L490.8,467.6L510.8,482.1L498.9,490ZM527,493L556.5,508.4L528.1,570.3L505.3,507.5L527,493ZM544.1,481.6L573.2,462.2L563.1,491.5L544.1,481.6ZM540.1,283.6L536.9,211.8L598.5,245.1L540.1,283.6ZM522,283L461.8,244.7L518.8,211.6L522,283ZM436.6,230.6L398.8,212.5L440.8,175.1L436.6,230.6ZM385.2,262.3L353.7,287L316.9,234.6L375.9,225L385.2,262.3ZM385.9,412.4L385.8,461.8L345.3,393.9L385.9,412.4ZM490.2,518.7L508.3,568.6L466.7,537.3L490.2,518.7ZM571.5,518.9L589.7,534.2L550.6,564.5L571.5,518.9ZM653.2,403.7L618.7,418.2L653.2,374.2L653.2,403.7ZM671.2,351.2L672.4,349.6C673.5,348.2 674.1,346.6 674.3,345L705.2,315.8L725.4,370.9L671.3,395.7L671.3,351.2L671.2,351.2ZM672.1,199.2L633.6,165.2L682.6,170.1L672.1,199.2ZM386,199.7L373.7,171.2L424.4,165.6L386,199.7ZM337.2,294.8L310.2,302.9L310.2,256.4L337.2,294.8ZM671.2,462.3L671.2,415.5L712.9,396.4L671.2,462.3Z" style="fill-rule:nonzero;"/>
        </g>
    </g>
</svg>
