<?xml version="1.0" encoding="UTF-8" standalone="no"?>
<!DOCTYPE svg PUBLIC "-//W3C//DTD SVG 1.1//EN" "http://www.w3.org/Graphics/SVG/1.1/DTD/svg11.dtd">
<svg width="100%" height="100%" viewBox="0 0 338 351" version="1.1" xmlns="http://www.w3.org/2000/svg" xmlns:xlink="http://www.w3.org/1999/xlink" xml:space="preserve" xmlns:serif="http://www.serif.com/" style="fill-rule:evenodd;clip-rule:evenodd;stroke-linejoin:round;stroke-miterlimit:2;">
    <g transform="matrix(1,0,0,1,-34.0973,-579.351)">
        <g transform="matrix(0.544639,0.838671,-0.838671,0.544639,732.025,90.6568)">
            <path d="M128.3,910.9L127,910.9C126.4,910.9 126,910.8 125.6,910.8C125.2,910.8 124.8,910.7 124.4,910.6C123.8,910.5 123.2,910.4 122.7,910.3C122.2,910.2 121.7,910.1 121.3,909.9C120.7,909.7 120.1,909.5 119.7,909.3C119.3,909.1 118.8,909 118.4,908.8C117.9,908.6 117.4,908.3 116.9,908C116.5,907.8 116.1,907.5 115.7,907.3C115,906.9 114.5,906.5 114.2,906.3C113.9,906.1 113.5,905.8 113.1,905.5C112.5,905 112,904.5 111.8,904.3C111.5,904 111.2,903.7 110.9,903.3C110.3,902.7 109.9,902.2 109.7,901.8C109.4,901.5 109.2,901.1 108.9,900.7C108.3,899.8 107.8,898.9 107.3,898L69.1,821C68.7,820.1 68.3,819.2 68,818.3C67.9,817.9 67.7,817.5 67.6,817C67.5,816.6 67.3,816.1 67.2,815.4C67.1,815 67,814.5 67,814C67,813.7 66.9,813.2 66.8,812.5C66.8,812.1 66.7,811.6 66.7,811.1L66.7,809.6C66.7,809.2 66.8,808.7 66.8,808.2C66.8,807.7 66.9,807.2 67,806.8C67.1,806.3 67.2,805.8 67.3,805.4C67.4,804.9 67.5,804.4 67.7,803.9C67.8,803.5 68,803 68.2,802.6C68.4,802.1 68.5,801.7 68.8,801.2C69,800.8 69.2,800.4 69.4,800C69.6,799.6 69.8,799.1 70.1,798.7C70.1,798.6 172.8,631.2 172.8,631.2C172.9,631.1 172.9,631 173,630.9C173.5,630.1 174,629.4 174.6,628.7C175,628.2 175.4,627.8 175.5,627.6C175.8,627.3 176.2,626.9 176.7,626.4C177.1,626 177.4,625.7 177.8,625.5C178,625.3 178.5,624.9 179.2,624.4C179.6,624.1 179.9,623.9 180.3,623.7C180.7,623.4 181.1,623.2 181.6,622.9C181.8,622.8 182.1,622.6 182.5,622.4C182.9,622.2 183.2,622 183.6,621.9C183.9,621.8 184.1,621.7 184.3,621.6C185,621.3 185.7,621.1 186.4,620.9C186.5,620.9 186.7,620.8 186.8,620.8C187.7,620.6 188.7,620.4 189.6,620.2C189.8,620.2 190,620.1 190.2,620.1C190.8,620 191.3,620 191.9,620L192.6,620L285.9,619.5L286.7,619.5C287.4,619.5 288.1,619.6 288.8,619.7C289,619.7 289.2,619.7 289.3,619.8C290.4,620 291.4,620.2 292.4,620.5C292.6,620.6 292.8,620.6 293,620.7C293.8,620.9 294.5,621.2 295.2,621.5C295.4,621.6 295.7,621.7 295.9,621.8C296.7,622.2 297.4,622.6 298.2,623C298.3,623.1 298.6,623.2 298.6,623.2C299.4,623.7 300.2,624.3 300.9,624.9C301.1,625.1 301.3,625.2 301.4,625.4C302,625.9 302.6,626.5 303.1,627.1C303.3,627.3 303.4,627.5 303.6,627.6C304.2,628.3 304.8,629.1 305.4,630C305.5,630.2 305.6,630.3 305.7,630.5C306,631.1 306.4,631.7 306.7,632.3C306.8,632.6 307,632.8 307.1,633.1L418.7,876.1C418.8,876.3 418.9,876.5 419,876.8C419.2,877.3 419.4,877.9 419.6,878.5C419.7,878.7 419.7,878.9 419.8,879.1C420.1,879.9 420.3,880.8 420.4,881.6C420.4,881.9 420.5,882.1 420.5,882.3C420.6,882.9 420.7,883.6 420.7,884.3L420.7,887.4C420.7,887.7 420.7,887.9 420.6,888C420.5,888.7 420.5,889.3 420.3,890C420.3,890.2 420.2,890.4 420.2,890.6C420,891.5 419.8,892.4 419.5,893.2C419.4,893.4 419.4,893.6 419.3,893.8C419.1,894.4 418.8,895.1 418.5,895.7C418.4,895.9 418.3,896.1 418.2,896.3C417.8,897.1 417.4,897.8 417,898.5L416.9,898.7C416.8,898.9 416.7,899.1 416.5,899.2C416.2,899.7 415.8,900.2 415.4,900.7C415.2,900.9 415.1,901.1 414.9,901.3C413.8,902.6 412.5,903.8 411.1,904.8C411,904.9 410.8,905 410.6,905.2C410,905.6 409.4,906 408.7,906.4C408.6,906.4 408.4,906.6 408.4,906.6C407.7,907 406.9,907.4 406.1,907.7L405.5,907.9C404.8,908.2 404.2,908.4 403.5,908.6C403.3,908.7 403.1,908.7 402.9,908.8C402.1,909 401.3,909.2 400.4,909.3C400.2,909.3 399.8,909.4 399.8,909.4C399.1,909.5 398.4,909.5 397.8,909.6L397.1,909.6C397.5,909.1 128.4,910.9 128.3,910.9Z" style="fill:rgb(237,28,36);fill-rule:nonzero;"/>
            <path d="M397.6,894.3L397.7,894.3C398,894.3 398.3,894.3 398.6,894.2L398.8,894.2C399.1,894.2 399.5,894.1 399.8,894L399.9,894C400.2,893.9 400.5,893.8 400.8,893.7C400.9,893.7 400.9,893.6 401,893.6C401.3,893.5 401.6,893.3 401.9,893.2C402.2,893 402.4,892.9 402.7,892.7C402.8,892.7 402.8,892.6 402.9,892.6C403.4,892.2 403.9,891.7 404.4,891.2C404.5,891.1 404.5,891.1 404.6,891C404.8,890.8 405,890.5 405.1,890.3C405.1,890.3 405.1,890.2 405.2,890.2C405.4,889.9 405.5,889.6 405.7,889.4C405.7,889.3 405.8,889.2 405.8,889.2C405.9,888.9 406,888.7 406.1,888.4C406.1,888.3 406.1,888.3 406.2,888.2C406.3,887.9 406.4,887.6 406.4,887.2L406.4,887C406.4,886.7 406.5,886.4 406.5,886.2L406.5,884.8C406.5,884.5 406.4,884.3 406.4,884L406.4,883.8C406.3,883.5 406.3,883.2 406.2,882.8C406.2,882.7 406.2,882.7 406.1,882.6C406,882.3 405.9,882.1 405.8,881.8L405.8,881.7L294.2,638.7C294.2,638.7 294.2,638.6 294.1,638.6C294,638.3 293.8,638 293.6,637.7C293.6,637.6 293.5,637.6 293.5,637.5C293.3,637.2 293.1,636.9 292.8,636.6L292.7,636.5C292.5,636.3 292.3,636 292,635.8C291.9,635.7 291.9,635.7 291.8,635.6C291.5,635.4 291.2,635.1 290.9,634.9C290.6,634.7 290.3,634.5 289.9,634.4C289.8,634.4 289.7,634.3 289.6,634.3C289.3,634.2 289,634 288.7,634L288.5,634C288.1,633.9 287.7,633.8 287.4,633.7L287.2,633.7C286.9,633.7 286.5,633.6 286.2,633.6L286.1,633.6L193,634L192.9,634C192.6,634 192.3,634 192,634.1L191.8,634.1C191.4,634.1 191.1,634.2 190.7,634.3L190.6,634.3C190.3,634.4 190,634.5 189.7,634.6C189.6,634.6 189.5,634.7 189.4,634.7C189.3,634.8 189.2,634.8 189,634.9C188.9,634.9 188.9,635 188.8,635C188.6,635.1 188.4,635.2 188.2,635.4C188.1,635.5 187.9,635.6 187.8,635.7C187.6,635.8 187.4,636 187.3,636.1C187.2,636.2 187,636.3 186.9,636.4C186.7,636.6 186.6,636.7 186.4,636.9C186.3,637 186.2,637.1 186.1,637.3C185.9,637.6 185.6,637.9 185.4,638.2L185.4,638.3L82.6,805.3C82.5,805.5 82.4,805.6 82.3,805.8C82.2,806 82.1,806.1 82.1,806.3C82,806.5 82,806.7 81.9,806.9C81.8,807.1 81.8,807.2 81.7,807.4C81.6,807.6 81.6,807.8 81.6,808C81.6,808.2 81.5,808.3 81.5,808.5C81.5,808.7 81.5,808.9 81.4,809.1C81.4,809.3 81.4,809.4 81.3,809.6L81.3,810.7C81.3,810.9 81.4,811.1 81.4,811.3C81.4,811.5 81.4,811.6 81.5,811.8C81.5,812 81.6,812.2 81.7,812.4C81.7,812.5 81.8,812.7 81.8,812.8C81.9,813.2 82.1,813.5 82.2,813.9L120.4,890.9C120.6,891.3 120.8,891.6 121,892C121.1,892.1 121.2,892.2 121.3,892.3C121.5,892.5 121.6,892.7 121.8,892.9L122.6,893.7C122.7,893.8 122.9,893.9 123,894C123.2,894.1 123.4,894.3 123.6,894.4C123.7,894.5 123.9,894.6 124.1,894.7C124.3,894.8 124.5,894.9 124.7,895C124.9,895.1 125,895.1 125.2,895.2C125.4,895.3 125.6,895.4 125.8,895.4C126,895.5 126.2,895.5 126.3,895.5C126.5,895.6 126.7,895.6 127,895.6C127.2,895.6 127.4,895.6 127.6,895.7C127.7,895.7 127.9,895.7 128,895.8L128.6,895.8L397.6,894.3ZM104.5,818.6L162.9,816.7L129.4,868.8L104.5,818.6ZM141.2,744.1L166,798.6L106.6,800.5L141.2,744.1ZM191.9,661.4L218.6,715.6L158.5,715.9L191.9,661.4ZM234.6,738.6L361.7,862.8L193.4,802.5L234.6,738.6ZM181.1,788.4L156.3,733.9L216.4,733.6L181.1,788.4ZM234,706.2L207.2,651.6L269.4,651.3L234,706.2ZM183.5,818.1L346.7,876.7L144.9,878L183.5,818.1ZM244.5,723.2L284.5,661L369,844.9L244.5,723.2Z" style="fill-rule:nonzero;"/>
        </g>
    </g>
</svg>
